<svg height="512" viewBox="0 0 64 64" width="512" xmlns="http://www.w3.org/2000/svg"><g id="Computer_Game-PC-Gaming-Keyboard-Fighting_Game" data-name="Computer Game-PC-Gaming-Keyboard-Fighting Game"><path d="m39 11h22v19h-22z" fill="#ff9811"/><path d="m39 11h10v19h-10z" fill="#ee8700"/><path d="m39 30h22v7h-22z" fill="#e6e7e8"/><path d="m39 37h22v10h-22z" fill="#ff9811"/><path d="m49 37a2.006 2.006 0 0 1 -2 2h-8v-2z" fill="#ee8700"/><path d="m39 30h10v7h-10z" fill="#d8d7da"/><path d="m47 9v22h-44v-22a2.006 2.006 0 0 1 2-2h40a2.006 2.006 0 0 1 2 2z" fill="#5aaae7"/><path d="m40.83 26.17-2.83 2.83-4.24-4.24-1.42 1.41-2.83-2.83 1.42-1.41-3.93-3.49-3.93 3.49 1.42 1.41-2.83 2.83-1.42-1.41-4.24 4.24-2.83-2.83 4.24-4.24-1.41-1.42 2.83-2.82 1.41 1.41 3.31-3.72-5.35-4.76-.9-3.62h5.7l4 4.5 4-4.5h5.7l-.5 2-.4 1.62-5.35 4.76 3.31 3.72 1.41-1.41 2.83 2.82-1.41 1.42z" fill="#3d9ae2"/><path d="m29.56 4.37-11.32 12.73 2.83 2.83 12.73-11.31.4-1.62 1.01-4.04z" fill="#ee8700"/><path d="m47 31v4a2.006 2.006 0 0 1 -2 2h-40a2.006 2.006 0 0 1 -2-2v-4z" fill="#c6c5ca"/><path d="m61 57v4h-10v-4a2.006 2.006 0 0 1 2-2h6a2.006 2.006 0 0 1 2 2z" fill="#c6c5ca"/><path d="m3 57h44v4h-44z" fill="#acabb1"/><path d="m42 51 5 6h-44l5-6z" fill="#c6c5ca"/><path d="m35 43v4h-20v-4h5 10z" fill="#898890"/><path d="m20 37h10v6h-10z" fill="#acabb1"/><path d="m33.294 20.467h4.002v5.996h-4.002z" fill="#acabb1" transform="matrix(.707 -.707 .707 .707 -6.255 31.83)"/><path d="m36 18.51-1.41 1.42-2.83 2.83-1.42 1.41-2.83-2.83 1.42-1.41 2.83-2.83 1.41-1.41z" fill="#ff5023"/><path d="m11.707 21.464h5.996v4.002h-5.996z" fill="#acabb1" transform="matrix(.707 -.707 .707 .707 -12.285 17.271)"/><path d="m22.49 21.34-2.83 2.83-1.42-1.41-2.83-2.83-1.41-1.42 2.83-2.82 1.41 1.41 2.83 2.83z" fill="#ff5023"/><path d="m20.44 4.37-5.65-1.41 1.41 5.66 12.73 11.31 2.83-2.83z" fill="#ff9811"/><path d="m20 37h10v2h-10z" fill="#898890"/><circle cx="50" cy="30" fill="#ee8700" r="3"/><path d="m42.768 50.359a1 1 0 0 0 -.768-.359h-34a1 1 0 0 0 -.768.359l-5 6a1 1 0 0 0 -.232.641v4a1 1 0 0 0 1 1h44a1 1 0 0 0 1-1v-4a1 1 0 0 0 -.232-.641zm-34.3 1.641h33.064l3.333 4h-39.73zm-4.468 8v-2h42v2z"/><path d="m9 53h2v2h-2z"/><path d="m13 53h2v2h-2z"/><path d="m35 53h2v2h-2z"/><path d="m17 53h16v2h-16z"/><path d="m39 53h2v2h-2z"/><path d="m40 33h2v2h-2z"/><path d="m61 10h-13v-1a3.009 3.009 0 0 0 -3-3h-9.52l.7-2.8a.985.985 0 0 0 -.26-.95 1.01 1.01 0 0 0 -.95-.26l-5.65 1.41a1.04 1.04 0 0 0 -.51.31l-2.04 2.29h-3.54l-2.04-2.29a1.011 1.011 0 0 0 -.5-.31l-5.66-1.41a.994.994 0 0 0 -1.21 1.21l.7 2.8h-9.52a3.009 3.009 0 0 0 -3 3v26a3.009 3.009 0 0 0 3 3h14v4h-4a1 1 0 0 0 -1 1v4a1 1 0 0 0 1 1h20a1 1 0 0 0 1-1v-4a1 1 0 0 0 -1-1h-4v-4h7v9a1 1 0 0 0 1 1h22a1 1 0 0 0 1-1v-36a1 1 0 0 0 -1-1zm-30.9-4.73 3.74-.94-.94 3.75-4.37 3.89-2.19-2.47zm-10.2 0 10.48 11.79-.31.32-1.18 1.17-11.79-10.48-.94-3.74zm10.44 17.49-1.41-1.42 4.24-4.24 1.42 1.41zm7.07 1.41-1.41 1.42-2.83-2.83 1.42-1.42zm-22-5.66 1.42-1.41 4.24 4.24-1.41 1.42zm1.42 4.25-2.83 2.83-1.41-1.42 2.82-2.83zm2.79-5.7 2.02-2.27 1.86 1.65-2.39 2.12zm-15.62-8.06a1 1 0 0 1 1-1h10.02l.21.86a1.011 1.011 0 0 0 .31.5l4.6 4.1-1.94 2.18-.66-.66a1.008 1.008 0 0 0 -1.42 0l-2.83 2.83a1 1 0 0 0 0 1.41l.71.71-3.54 3.53a1.052 1.052 0 0 0 -.29.71 1.033 1.033 0 0 0 .29.71l2.83 2.83a1.014 1.014 0 0 0 1.42 0l3.53-3.54.71.71a.99.99 0 0 0 .71.29.967.967 0 0 0 .7-.29l2.83-2.83a1 1 0 0 0 0-1.41l-.66-.67 2.47-2.19 2.47 2.19-.66.67a1 1 0 0 0 0 1.41l2.83 2.83a.967.967 0 0 0 .7.29.99.99 0 0 0 .71-.29l.71-.71 3.53 3.54a1.014 1.014 0 0 0 1.42 0l2.83-2.83a1.033 1.033 0 0 0 .29-.71 1.052 1.052 0 0 0 -.29-.71l-3.54-3.53.71-.71a1 1 0 0 0 0-1.41l-2.83-2.83a1.008 1.008 0 0 0 -1.42 0l-.66.66-1.94-2.18 4.6-4.09a1.04 1.04 0 0 0 .31-.51l.21-.86h10.02a1 1 0 0 1 1 1v21h-42zm30 35v2h-18v-2zm-13-2v-4h8v4zm-16-6a1 1 0 0 1 -1-1v-3h42v3a1 1 0 0 1 -1 1zm55 10h-20v-8h20zm0-10h-12.18a3 3 0 0 0 .18-1v-1.56a3.906 3.906 0 0 0 2 .56 4 4 0 0 0 3.86-3h6.14zm-12-6a2 2 0 1 1 2 2 2.006 2.006 0 0 1 -2-2zm12-1h-6.14a4 4 0 0 0 -3.86-3 3.906 3.906 0 0 0 -2 .56v-14.56h12z"/><path d="m56 16h2v4h-2z"/><path d="m52 16h2v4h-2z"/><path d="m59 54h-6a3 3 0 0 0 -3 3v4a1 1 0 0 0 1 1h10a1 1 0 0 0 1-1v-4a3 3 0 0 0 -3-3zm1 6h-8v-3a1 1 0 0 1 1-1h6a1 1 0 0 1 1 1z"/></g></svg>