<?xml version="1.0" encoding="iso-8859-1"?>
<!-- Generator: Adobe Illustrator 19.0.0, SVG Export Plug-In . SVG Version: 6.00 Build 0)  -->
<svg version="1.1" id="Capa_1" xmlns="http://www.w3.org/2000/svg" xmlns:xlink="http://www.w3.org/1999/xlink" x="0px" y="0px"
	 viewBox="0 0 511.999 511.999" style="enable-background:new 0 0 511.999 511.999;" xml:space="preserve">
<path style="fill:#3E454C;" d="M7.739,421.231V295.009c0-5.629,4.563-10.192,10.192-10.192h476.138
	c5.629,0,10.192,4.563,10.192,10.192v126.222c0,5.629-4.563,10.192-10.192,10.192H17.931C12.302,431.423,7.739,426.86,7.739,421.231
	z"/>
<path style="fill:#363C44;" d="M7.739,358.12v-63.111c0-5.629,4.563-10.192,10.192-10.192h476.138
	c5.629,0,10.192,4.563,10.192,10.192v63.111H7.739z"/>
<path style="fill:#FFE92F;" d="M262.724,372.051H7.739v-27.862h254.984c3.649,0,6.607,2.958,6.607,6.607v14.648
	C269.33,369.093,266.372,372.051,262.724,372.051z"/>
<path style="fill:#00BCE8;" d="M262.724,372.051H7.739v-27.862h254.984c3.649,0,6.607,2.958,6.607,6.607v14.648
	C269.33,369.093,266.372,372.051,262.724,372.051z"/>
<circle style="fill:#363C44;" cx="438.22" cy="366.37" r="17.584"/>
<circle style="fill:#7A6CF7;" cx="438.22" cy="358.12" r="16.511"/>
<polygon style="fill:#363C44;" points="310.341,73.883 201.66,73.883 209.479,97.17 250.24,120.146 299.256,104.823 "/>
<path style="fill:#555E6B;" d="M256,216.062h54.332c10.553,0,20.532,4.802,27.116,13.048l43.25,54.168
	c1.255,1.572,3.467,1.998,5.216,1.004l0,0c24.134-13.706,36.101-41.875,29.212-68.761l-25.283-98.666
	c-4.704-18.357-18.087-33.254-35.837-39.891l-21.254-7.947c-7.779-2.908-16.539-1.007-22.411,4.866L289.15,95.074
	c-3.866,3.866-9.11,6.038-14.578,6.038H256h-18.571c-5.468,0-10.712-2.172-14.578-6.038L201.66,73.883
	c-5.872-5.872-14.633-7.774-22.411-4.866l-21.254,7.947c-17.75,6.637-31.133,21.534-35.837,39.891l-25.283,98.666
	c-6.889,26.886,5.078,55.055,29.212,68.761l0,0c1.749,0.993,3.961,0.567,5.216-1.004l43.25-54.168
	c6.584-8.246,16.563-13.048,27.116-13.048L256,216.062L256,216.062z"/>
<g>
	<path style="fill:#414954;" d="M144.446,229.11l-33.969,42.543c4.387,4.939,9.622,9.23,15.608,12.629l0,0
		c1.749,0.993,3.961,0.567,5.216-1.005l43.25-54.168c6.584-8.246,16.563-13.048,27.116-13.048h-30.105
		C161.01,216.062,151.031,220.864,144.446,229.11z"/>
	<path style="fill:#414954;" d="M415.127,215.522l-25.283-98.666c-4.704-18.357-18.087-33.254-35.837-39.891l-21.254-7.947
		c-7.116-2.661-15.047-1.285-20.843,3.463l11.992,4.484c17.75,6.637,31.133,21.534,35.837,39.891l25.283,98.666
		c5.181,20.217-0.304,41.159-13.604,56.132l9.282,11.625c1.255,1.572,3.467,1.998,5.216,1.005l0,0
		C410.049,270.577,422.016,242.408,415.127,215.522z"/>
	<circle style="fill:#414954;" cx="175.47" cy="120.77" r="18.435"/>
	<circle style="fill:#414954;" cx="302.77" cy="171.71" r="18.435"/>
	<circle style="fill:#414954;" cx="300.64" cy="168.3" r="10.89"/>
	<circle style="fill:#414954;" cx="340.03" cy="104.44" r="7.739"/>
	<circle style="fill:#414954;" cx="340.03" cy="145.54" r="7.739"/>
	<circle style="fill:#414954;" cx="317.93" cy="125.31" r="7.739"/>
	<circle style="fill:#414954;" cx="362.13" cy="125.31" r="7.739"/>
	<path style="fill:#414954;" d="M234.729,163.974h-10.696v-10.696c0-4.274-3.465-7.739-7.739-7.739s-7.739,3.465-7.739,7.739v10.696
		h-10.696c-4.274,0-7.739,3.465-7.739,7.739s3.465,7.739,7.739,7.739h10.696v10.696c0,4.274,3.465,7.739,7.739,7.739
		s7.739-3.465,7.739-7.739v-10.696h10.696c4.274,0,7.739-3.465,7.739-7.739S239.003,163.974,234.729,163.974z"/>
</g>
<circle style="fill:#FFD82F;" cx="175.47" cy="115.61" r="18.435"/>
<circle style="fill:#2E343A;" cx="302.77" cy="166.55" r="18.435"/>
<circle style="fill:#6E7A89;" cx="300.64" cy="163.14" r="10.89"/>
<path style="fill:#49BC6E;" d="M234.729,158.815h-10.696v-10.696c0-4.274-3.465-7.739-7.739-7.739s-7.739,3.465-7.739,7.739v10.696
	h-10.696c-4.274,0-7.739,3.465-7.739,7.739s3.465,7.739,7.739,7.739h10.696v10.696c0,4.274,3.465,7.739,7.739,7.739
	s7.739-3.465,7.739-7.739v-10.696h10.696c4.274,0,7.739-3.465,7.739-7.739S239.003,158.815,234.729,158.815z"/>
<circle cx="305.84" cy="358.12" r="7.739"/>
<path d="M438.22,333.87c-13.372,0-24.25,10.878-24.25,24.25s10.878,24.25,24.25,24.25s24.25-10.878,24.25-24.25
	S451.592,333.87,438.22,333.87z M438.22,366.891c-4.837,0-8.771-3.935-8.771-8.771s3.935-8.771,8.771-8.771
	c4.837,0,8.771,3.935,8.771,8.771S443.057,366.891,438.22,366.891z"/>
<path d="M494.069,277.077h-87.048c15.139-16.888,21.452-40.649,15.603-63.476l-19.917-77.723c-1.061-4.14-5.275-6.635-9.418-5.576
	c-4.14,1.061-6.637,5.277-5.576,9.418l19.917,77.723c5.749,22.434-3.623,46.038-22.884,58.5l-41.25-51.662
	c-8.097-10.142-20.185-15.958-33.163-15.958H256h-54.332c-12.978,0-25.066,5.817-33.164,15.958l-41.249,51.662
	c-19.261-12.462-28.632-36.066-22.884-58.5l25.283-98.666c4.073-15.896,15.681-28.817,31.051-34.564l21.255-7.947
	c4.924-1.843,10.509-0.629,14.227,3.088c0.001,0.001,0.001,0.001,0.002,0.002l21.19,21.19c5.356,5.356,12.476,8.305,20.05,8.305H256
	h18.571c7.574,0,14.694-2.95,20.051-8.305l21.191-21.191c3.718-3.718,9.3-4.93,14.229-3.089l21.254,7.947
	c12.497,4.673,22.451,13.921,28.027,26.04c1.305,2.835,4.107,4.507,7.036,4.507c1.082,0,2.182-0.228,3.23-0.71
	c3.883-1.787,5.583-6.383,3.796-10.266c-7.295-15.855-20.317-27.954-36.667-34.068l-21.254-7.947
	c-9.506-3.555-20.148-1.802-28.013,4.375h-102.9c-7.864-6.178-18.506-7.931-28.012-4.375l-21.255,7.947
	c-20.109,7.519-35.295,24.423-40.624,45.219l-25.283,98.666c-5.849,22.827,0.463,46.589,15.602,63.476H17.932
	C8.044,277.077,0,285.121,0,295.008v49.181v27.862v49.18c0,9.887,8.044,17.931,17.932,17.931h31.427v5.151
	c0,4.274,3.465,7.739,7.739,7.739s7.739-3.465,7.739-7.739v-5.151h382.325v5.151c0,4.274,3.465,7.739,7.739,7.739
	s7.739-3.465,7.739-7.739v-5.151h31.428c9.887,0,17.931-8.044,17.931-17.931V295.008C512,285.121,503.956,277.077,494.069,277.077z
	 M274.571,93.373H256h-18.571c-3.439,0-6.673-1.339-9.105-3.771l-7.98-7.98h71.312l-7.979,7.979
	C281.245,92.034,278.01,93.373,274.571,93.373z M496.521,421.231c0,1.352-1.1,2.452-2.452,2.452H17.932
	c-1.352,0-2.453-1.1-2.453-2.452v-49.18v-20.122h246.112v12.383H40.933c-4.274,0-7.739,3.465-7.739,7.739s3.465,7.739,7.739,7.739
	h221.791c7.911,0,14.346-6.435,14.346-14.346v-14.648c0-7.911-6.435-14.346-14.346-14.346H15.479v-41.441
	c0-1.352,1.1-2.452,2.453-2.452h109.956c0.079,0.002,0.158,0.015,0.236,0.015c0.091,0,0.181-0.013,0.272-0.015h35.679
	c4.274,0,7.739-3.465,7.739-7.739s-3.465-7.739-7.739-7.739h-17.919l34.443-43.138c5.144-6.442,12.823-10.138,21.068-10.138H256
	h54.333c8.245,0,15.924,3.695,21.068,10.138l34.444,43.138H197.858c-4.274,0-7.739,3.465-7.739,7.739s3.465,7.739,7.739,7.739
	h185.745c0.091,0.002,0.181,0.015,0.272,0.015c0.079,0,0.157-0.014,0.236-0.015h109.957c1.352,0,2.452,1.1,2.452,2.452v126.222
	H496.521z"/>
<path d="M201.646,115.606c0-14.433-11.742-26.175-26.174-26.175s-26.175,11.742-26.175,26.175s11.742,26.174,26.175,26.174
	S201.646,130.038,201.646,115.606z M175.472,126.301c-5.898,0-10.696-4.798-10.696-10.696s4.798-10.696,10.696-10.696
	s10.696,4.798,10.696,10.696C186.167,121.503,181.369,126.301,175.472,126.301z"/>
<path d="M276.592,166.554c0,14.433,11.742,26.174,26.175,26.174c14.433,0,26.174-11.742,26.174-26.174s-11.742-26.175-26.174-26.175
	S276.592,152.121,276.592,166.554z M313.463,166.554c0,5.898-4.798,10.696-10.696,10.696s-10.696-4.798-10.696-10.696
	s4.798-10.696,10.696-10.696S313.463,160.656,313.463,166.554z"/>
<circle cx="340.03" cy="99.28" r="7.739"/>
<circle cx="340.03" cy="140.38" r="7.739"/>
<circle cx="317.93" cy="120.15" r="7.739"/>
<circle cx="362.13" cy="120.15" r="7.739"/>
<path d="M216.294,192.728c4.274,0,7.739-3.465,7.739-7.739v-10.696h10.696c4.274,0,7.739-3.465,7.739-7.739
	s-3.465-7.739-7.739-7.739h-10.696v-10.696c0-4.274-3.465-7.739-7.739-7.739s-7.739,3.465-7.739,7.739v10.696h-10.696
	c-4.274,0-7.739,3.465-7.739,7.739s3.465,7.739,7.739,7.739h10.696v10.696C208.555,189.263,212.02,192.728,216.294,192.728z"/>
<g>
</g>
<g>
</g>
<g>
</g>
<g>
</g>
<g>
</g>
<g>
</g>
<g>
</g>
<g>
</g>
<g>
</g>
<g>
</g>
<g>
</g>
<g>
</g>
<g>
</g>
<g>
</g>
<g>
</g>
</svg>
