<?xml version="1.0" encoding="iso-8859-1"?>
<!-- Generator: Adobe Illustrator 16.0.0, SVG Export Plug-In . SVG Version: 6.00 Build 0)  -->
<!DOCTYPE svg PUBLIC "-//W3C//DTD SVG 1.1//EN" "http://www.w3.org/Graphics/SVG/1.1/DTD/svg11.dtd">
<svg version="1.1" id="Capa_1" xmlns="http://www.w3.org/2000/svg" xmlns:xlink="http://www.w3.org/1999/xlink" x="0px" y="0px"
	 width="581.139px" height="581.138px" viewBox="0 0 581.139 581.138" style="enable-background:new 0 0 581.139 581.138;"
	 xml:space="preserve">
<g>
	<g>
		<circle cx="290.567" cy="153.408" r="18.752"/>
		<path d="M328.229,145.349c0,6.756,5.483,12.24,12.24,12.24s12.24-5.483,12.24-12.24c0-29.346-27.877-53.213-62.137-53.213
			s-62.136,23.868-62.136,53.213c0,6.756,5.483,12.24,12.24,12.24c6.757,0,12.24-5.483,12.24-12.24
			c0-15.845,16.897-28.733,37.656-28.733S328.229,129.504,328.229,145.349z"/>
		<path d="M382.281,151.817c6.757,0,12.24-5.483,12.24-12.24c0-48.274-46.628-87.546-103.948-87.546
			c-57.32,0-103.954,39.272-103.954,87.546c0,6.757,5.483,12.24,12.24,12.24s12.24-5.483,12.24-12.24
			c0-34.774,35.649-63.066,79.468-63.066s79.475,28.292,79.475,63.066C370.042,146.334,375.519,151.817,382.281,151.817z"/>
		<circle cx="512.454" cy="299.511" r="19.865"/>
		<rect x="228.002" y="297.13" width="18.905" height="7.711"/>
		<path d="M200.126,348.392c-18.954,0-34.37,15.422-34.37,34.369c0,18.948,15.422,34.364,34.37,34.364
			c18.947,0,34.364-15.416,34.364-34.364C234.49,363.814,219.08,348.392,200.126,348.392z"/>
		<path d="M114.018,313.949c-5.049,3.696-10.331,8.103-11.108,9.669c-1.359,2.712-3.237,17.259-2.882,22.234
			c0.073,1.059,0.3,4.266,13.966,4.271l0.042,3.061v-3.061c13.666-0.006,13.898-3.213,13.966-4.266
			c0.361-4.976-1.524-19.522-2.882-22.24C124.336,322.051,119.061,317.651,114.018,313.949z"/>
		<circle cx="419.21" cy="299.511" r="19.865"/>
		<path d="M381.37,348.392c-18.954,0-34.37,15.422-34.37,34.369c0,18.948,15.422,34.364,34.37,34.364
			c18.947,0,34.369-15.416,34.369-34.364C415.739,363.814,400.323,348.392,381.37,348.392z"/>
		<path d="M290.567,323.202c-17.057,0-30.931,13.874-30.931,30.931s13.874,30.931,30.931,30.931s30.931-13.874,30.931-30.931
			S307.624,323.202,290.567,323.202z M282.629,365.76c-0.012,0.214-0.447,0.532-0.722,0.581c-4.884,0.82-9.633,0.294-14.247-1.493
			c-0.392-0.152-0.765-0.392-1.12-0.636c-1.756-1.243-1.756-2.896,0.043-4.04c0.783-0.502,1.616-0.961,2.479-1.278
			c4.437-1.635,8.886-3.22,13.568-4.902c0,1.646,0.031,3.158-0.037,4.669c-0.012,0.209-0.49,0.466-0.795,0.576
			c-2.454,0.899-4.927,1.756-7.381,2.662c-0.569,0.208-1.083,0.562-1.628,0.845c0.012,0.134,0.019,0.275,0.031,0.409
			c0.539,0.19,1.089,0.563,1.616,0.526c1.518-0.104,3.047-0.281,4.529-0.611c1.199-0.27,2.344-0.802,3.696-1.285
			C282.66,363.214,282.697,364.494,282.629,365.76z M292.605,339.805c-0.166,0.404-0.123,0.912-0.123,1.377
			c0,9.498,0,18.997,0,28.501c0,0.453,0,0.899,0,1.524c-2.791-0.888-5.373-1.695-7.95-2.546c-0.202-0.067-0.385-0.386-0.447-0.625
			c-0.08-0.3-0.03-0.643-0.03-0.961c0.012-11.218,0.024-22.441,0.037-33.659c0-0.393,0-0.784,0-1.322
			c0.765,0.153,1.432,0.232,2.068,0.416c3.642,1.064,7.283,2.13,10.9,3.262c0.948,0.294,1.842,0.796,2.717,1.279
			c2.858,1.585,4.511,4.015,4.921,7.265c0.281,2.252,0.386,4.492-0.343,6.701c-1.236,3.728-4.67,4.78-8.286,3.061
			c-0.282-0.135-0.466-0.753-0.472-1.145c-0.03-3.801,0.013-7.602-0.043-11.402c-0.006-0.752-0.22-1.578-0.594-2.221
			c-0.226-0.386-0.979-0.692-1.438-0.631C293.162,338.722,292.795,339.352,292.605,339.805z M314.398,358.661
			c1.952,1.292,2.044,2.864,0.079,4.132c-1.211,0.789-2.595,1.364-3.959,1.866c-5.239,1.928-10.508,3.794-15.766,5.68
			c-0.232,0.079-0.471,0.128-0.887,0.238c0-1.555-0.043-2.95,0.036-4.339c0.019-0.288,0.466-0.674,0.796-0.796
			c3.801-1.389,7.613-2.735,11.426-4.094c0.508-0.178,1.028-0.337,1.493-0.594c0.282-0.153,0.472-0.483,0.698-0.729
			c-0.264-0.202-0.502-0.514-0.796-0.588c-1.683-0.422-3.342-0.214-4.963,0.35c-2.467,0.856-4.927,1.737-7.394,2.606
			c-0.361,0.129-0.734,0.239-1.272,0.41c0-1.671-0.024-3.194,0.024-4.719c0.006-0.201,0.379-0.495,0.637-0.575
			c6.45-2.031,12.833-1.971,19.106,0.723C313.915,358.349,314.16,358.501,314.398,358.661z"/>
		<circle cx="465.832" cy="346.133" r="19.865"/>
		<polygon points="333.07,304.946 349.179,300.111 333.07,295.742 		"/>
		<path d="M157.298,288.593c-0.379-0.03-0.82-0.043-1.315-0.043c-6.347,0-18.47,1.689-20.924,2.926
			c-1.573,0.783-5.979,6.059-9.676,11.102c3.696,5.049,8.103,10.33,9.676,11.107c2.454,1.23,14.584,2.926,20.924,2.926
			c0.496,0,0.936-0.013,1.31-0.043c1.059-0.073,4.259-0.3,4.266-13.966C161.551,288.887,158.351,288.661,157.298,288.593z"/>
		<path d="M561.249,299.97c-2.442-18.305-10.172-52.075-43.532-75.264l-8.14-31.328c0,0-0.813-7.729-10.985-13.427
			c0,0,0.612-5.288-8.745-7.73c-9.357-2.441-31.12-7.117-56.549,1.426c0,0-3.868,1.016-3.666,6.713c0,0-12.001,5.9-14.443,16.885
			c-2.441,10.985-5.697,24.816-5.697,24.816H171.644c0,0-3.256-13.831-5.698-24.816s-14.443-16.885-14.443-16.885
			c0.202-5.698-3.666-6.713-3.666-6.713c-25.422-8.543-47.191-3.868-56.549-1.426s-8.745,7.729-8.745,7.729
			c-10.172,5.698-10.986,13.428-10.986,13.428l-8.139,31.328c-33.36,23.188-41.09,56.959-43.532,75.264
			C17.444,318.282,1.575,438.705,0.357,452.94c-1.224,14.241-2.038,67.534,46.787,75.264c48.826,7.729,74.456-36.616,74.456-36.616
			l32.956-57.161c73.636,57.161,108.63-20.544,108.63-20.544h54.768c0,0,34.988,77.705,108.63,20.544l32.956,57.161
			c0,0,25.631,44.346,74.456,36.616c48.819-7.729,48.006-61.029,46.788-75.264C579.554,438.699,563.685,318.275,561.249,299.97z
			 M465.832,226.904c14.326,0,25.985,11.658,25.985,25.985c0,14.327-11.659,25.985-25.985,25.985
			c-14.327,0-25.985-11.659-25.985-25.985C439.847,238.562,451.505,226.904,465.832,226.904z M317.33,249.535
			c3.776,0,7.546,0,11.322,0c0.036,0.129,0.049,1.983,0.012,2.265c-0.062,0.006-0.128,0.012-0.195,0.012c-0.386,0-0.771,0-1.163,0
			c-0.043,0-0.092,0-0.129,0.006c-0.152,0.025-0.244,0.123-0.208,0.275c0.024,0.117,0.073,0.245,0.141,0.343
			c0.116,0.171,0.251,0.325,0.392,0.478c1.114,1.218,2.222,2.43,3.336,3.642c0.024,0.03,0.061,0.055,0.104,0.092
			c0.049-0.055,0.099-0.104,0.141-0.153c1.261-1.377,2.516-2.754,3.776-4.131c0.024-0.031,0.056-0.067,0.08-0.104
			c0.085-0.128,0.061-0.251-0.056-0.349c-0.098-0.079-0.208-0.098-0.33-0.098c-0.392,0.006-0.79,0-1.182,0
			c-0.055,0-0.11-0.012-0.177-0.019c0-0.759,0-1.505,0-2.264c3.06,0,6.113,0,9.18,0c0,0.752,0,1.5,0,2.271c-0.067,0-0.135,0-0.202,0
			c-0.746,0-1.487,0-2.233,0c-0.123,0-0.208,0.037-0.294,0.123c-2.411,2.57-4.822,5.141-7.234,7.711
			c-0.079,0.086-0.116,0.165-0.109,0.282c0,0.991,0,1.977,0,2.968c0,0.042,0,0.085,0.006,0.128c0.019,0.196,0.122,0.312,0.312,0.336
			c0.086,0.012,0.178,0,0.264,0c0.838,0,1.677,0,2.516,0c0,0,0.049,0.006,0.085,0.012c0,0.679,0,1.353,0,2.032
			c-3.702,0-7.398,0-11.113,0c0-0.679,0-1.353,0-2.05c0.073,0,0.141,0,0.208,0c0.716,0,1.426,0,2.142,0c0.08,0,0.153,0,0.227-0.006
			c0.232-0.024,0.354-0.159,0.373-0.398c0-0.037,0-0.073,0-0.11c0-1.034,0-2.069,0-3.103c0-0.123-0.03-0.208-0.116-0.3
			c-2.289-2.503-4.571-5.006-6.848-7.509c-0.092-0.098-0.178-0.135-0.307-0.135c-0.832,0.006-1.664,0-2.497,0
			c-0.067,0-0.135,0-0.22,0C317.33,251.041,317.33,250.294,317.33,249.535z M289.9,249.529c0.085-0.006,0.159-0.006,0.244-0.006
			c2.51,0,5.019,0,7.534,0c0.11,0,0.227,0.006,0.337,0c0.134-0.012,0.232,0.031,0.336,0.123c0.686,0.63,1.384,1.254,2.075,1.879
			c2.84,2.558,5.673,5.116,8.513,7.674c0.055,0.049,0.11,0.098,0.202,0.178c0-0.11,0.006-0.184,0.006-0.251c0-2.032,0-4.058,0-6.089
			c0-0.159,0-0.312,0-0.471c0.006-0.257-0.11-0.441-0.324-0.576c-0.196-0.122-0.41-0.177-0.643-0.177c-0.704,0-1.401,0-2.105,0
			c-0.067,0-0.135,0-0.214,0c0-0.765,0-1.505,0-2.252c0,0,0.006-0.006,0.012-0.013c0-0.006,0.007-0.012,0.007-0.012
			c3.139-0.006,6.278-0.006,9.418-0.012c0,0,0.073,0.006,0.123,0.006c0,0.753,0,1.505,0,2.277c-0.074,0-0.135,0-0.202,0
			c-0.68,0-1.353,0-2.032-0.006c-0.569,0-0.82,0.239-0.845,0.814c0,0.085,0,0.177,0,0.263c0,4.113,0,8.231,0,12.344
			c0,0.08,0,0.159,0,0.251c-0.073,0.006-0.128,0.012-0.177,0.012c-1.065,0-2.13,0-3.195,0c-0.11,0-0.189-0.03-0.269-0.104
			c-4.07-3.623-8.14-7.24-12.21-10.863c-0.049-0.043-0.104-0.086-0.184-0.153c0,0.098,0,0.159,0,0.22c0,2.723,0,5.447,0,8.17
			c0,0.104,0.013,0.214,0.024,0.318c0.019,0.116,0.092,0.19,0.215,0.208c0.134,0.019,0.269,0.024,0.409,0.024
			c0.766,0,1.53,0,2.295,0c0.067,0,0.129,0,0.215,0c0,0.729,0,1.438,0,2.161c-3.17,0-6.334,0-9.505,0c0-0.716,0-1.426,0-2.161
			c0.074,0,0.142,0,0.208,0c0.698,0,1.39,0,2.087,0c0.08,0,0.166,0,0.245-0.012c0.245-0.037,0.386-0.196,0.397-0.447
			c0-0.049,0-0.098,0-0.153c0-3.47,0-6.94,0-10.41c0-0.049,0-0.098,0-0.153c-0.006-0.294-0.116-0.429-0.397-0.478
			c-0.135-0.024-0.275-0.037-0.41-0.037c-0.648-0.006-1.304,0-1.952,0c-0.067,0-0.135,0-0.232,0
			C289.9,250.925,289.9,250.239,289.9,249.529z M264.086,253.471c0.655-1.077,1.53-1.965,2.54-2.711
			c1.389-1.016,2.931-1.701,4.583-2.142c1.646-0.44,3.323-0.6,5.025-0.52c2.093,0.098,4.1,0.551,5.998,1.457
			c1.322,0.63,2.515,1.451,3.513,2.534c0.887,0.961,1.542,2.044,1.879,3.317c0.453,1.708,0.251,3.354-0.545,4.92
			c-0.661,1.298-1.628,2.338-2.791,3.201c-1.408,1.046-2.993,1.744-4.682,2.185c-0.979,0.257-1.971,0.416-2.98,0.483
			c-0.392,0.024-0.79,0.006-1.181,0.006c0,0.006,0,0.012,0,0.018c-0.508-0.018-1.016-0.006-1.518-0.055
			c-2.644-0.239-5.098-1.022-7.271-2.589c-1.138-0.82-2.081-1.818-2.76-3.06c-0.605-1.108-0.912-2.289-0.875-3.55
			C263.052,255.71,263.431,254.548,264.086,253.471z M93.913,258.856c0.704-9.933,14.278-9.938,20.074-9.945
			c5.838,0.006,19.413,0.012,20.116,9.951c0.38,5.306-1.407,21.206-3.513,25.404c-1.909,3.825-11.396,10.777-14.596,13.048
			c-0.232,0.196-0.502,0.367-0.795,0.49c-0.379,0.152-0.79,0.232-1.188,0.232c-0.067,0-0.128,0-0.202-0.007
			c-0.398-0.024-0.808-0.128-1.175-0.317c-0.22-0.11-0.428-0.245-0.618-0.398c-3.194-2.276-12.681-9.223-14.59-13.047
			C95.327,280.068,93.534,264.168,93.913,258.856z M70.296,322.675c-9.938-0.704-9.945-14.277-9.951-20.073
			c0.006-5.839,0.012-19.413,9.957-20.117c0.496-0.037,1.083-0.055,1.744-0.055c5.655,0,19.529,1.506,23.66,3.568
			c3.819,1.909,10.765,11.383,13.036,14.59c0.134,0.159,0.263,0.337,0.367,0.526c0.281,0.532,0.404,1.126,0.361,1.701
			c-0.037,0.483-0.184,0.955-0.447,1.383c-0.085,0.135-0.177,0.27-0.281,0.386c-2.277,3.207-9.217,12.669-13.03,14.578
			c-4.131,2.062-18.005,3.568-23.66,3.568C71.386,322.731,70.798,322.712,70.296,322.675z M134.109,346.292
			c-0.704,9.939-14.278,9.945-20.074,9.951h-0.018c-5.82-0.006-19.395-0.012-20.098-9.957c-0.379-5.3,1.408-21.193,3.513-25.404
			c1.91-3.812,11.371-10.753,14.584-13.035c0.116-0.099,0.239-0.184,0.374-0.27c0.606-0.373,1.322-0.551,2.007-0.44
			c0.373,0.042,0.734,0.152,1.077,0.343c0.208,0.109,0.397,0.238,0.569,0.385c3.231,2.295,12.656,9.211,14.56,13.018
			C132.696,325.093,134.489,340.987,134.109,346.292z M155.982,322.731c-5.661,0-19.535-1.506-23.66-3.568
			c-3.819-1.909-10.771-11.383-13.042-14.59c-0.153-0.178-0.294-0.38-0.398-0.606c-0.27-0.526-0.374-1.113-0.318-1.677
			c0.024-0.3,0.098-0.605,0.214-0.894c0.128-0.312,0.306-0.594,0.514-0.838c2.289-3.22,9.217-12.656,13.029-14.566
			c4.125-2.062,17.999-3.568,23.66-3.568c0.661,0,1.249,0.018,1.75,0.055c9.933,0.704,9.939,14.278,9.945,20.074
			c-0.006,5.838-0.012,19.412-9.951,20.116C157.231,322.712,156.643,322.731,155.982,322.731z M200.126,423.251
			c-22.326,0-40.49-18.164-40.49-40.483c0-22.326,18.165-40.49,40.49-40.49c22.319,0,40.483,18.164,40.483,40.49
			C240.609,405.087,222.445,423.251,200.126,423.251z M253.021,306.072c0,2.693-2.191,4.89-4.896,4.89h-21.359
			c-2.693,0-4.89-2.19-4.89-4.89v-10.171c0-2.693,2.191-4.891,4.89-4.891h21.359c2.699,0,4.896,2.191,4.896,4.891V306.072z
			 M252.935,265.87c-0.906,0.135-1.812,0.227-2.729,0.227c-0.569,0-1.126-0.067-1.683-0.159c-1.818-0.3-3.605-0.729-5.368-1.267
			c-0.232-0.073-0.459-0.153-0.673-0.275c-0.208-0.122-0.453-0.116-0.716-0.11c0,0.336,0,0.667,0,1.003c-0.912,0-1.805,0-2.699,0
			c-0.043-0.128-0.061-5.906-0.019-6.261c0.135-0.037,2.375-0.042,2.564-0.006c0.019,0.171,0.037,0.343,0.067,0.514
			c0.135,0.722,0.514,1.31,1.053,1.799c0.593,0.551,1.285,0.924,2.032,1.224c0.851,0.343,1.738,0.563,2.644,0.71
			c1.199,0.196,2.411,0.275,3.629,0.227c0.918-0.037,1.817-0.171,2.681-0.52c0.477-0.19,0.912-0.441,1.285-0.796
			c0.196-0.184,0.367-0.392,0.496-0.63c0.061-0.11,0.074-0.22,0.049-0.343c-0.061-0.318-0.232-0.563-0.477-0.765
			c-0.245-0.196-0.514-0.331-0.802-0.447c-0.575-0.233-1.181-0.367-1.793-0.478c-1.022-0.19-2.05-0.306-3.084-0.422
			c-1.475-0.171-2.943-0.324-4.406-0.594c-1.175-0.22-2.338-0.489-3.439-0.979c-0.667-0.294-1.291-0.667-1.799-1.2
			c-0.648-0.679-0.967-1.487-0.979-2.423c-0.019-1.181,0.44-2.154,1.249-2.98c0.551-0.563,1.206-0.991,1.909-1.353
			c1.041-0.532,2.142-0.881,3.274-1.126c1.169-0.251,2.356-0.392,3.562-0.379c0.937,0.012,1.861,0.122,2.779,0.3
			c1.322,0.257,2.613,0.636,3.855,1.15c0.257,0.104,0.496,0.245,0.747,0.355c0.092,0.037,0.196,0.062,0.288,0.055
			c0.19-0.012,0.245-0.08,0.245-0.275c0-0.19,0-0.386,0-0.575c0.153-0.043,2.148-0.049,2.368-0.012c0,1.836,0,3.672,0,5.52
			c-0.765,0-1.518,0-2.289,0c-0.006-0.085-0.019-0.159-0.031-0.239c-0.092-0.667-0.398-1.218-0.881-1.683
			c-0.459-0.441-1.004-0.753-1.579-0.998c-0.79-0.343-1.622-0.557-2.466-0.704c-1.199-0.214-2.411-0.3-3.629-0.263
			c-0.9,0.031-1.799,0.104-2.681,0.325c-0.361,0.092-0.71,0.208-1.041,0.379c-0.239,0.122-0.465,0.275-0.643,0.477
			c-0.208,0.233-0.324,0.502-0.343,0.814c-0.012,0.263,0.08,0.49,0.282,0.643c0.165,0.129,0.355,0.239,0.544,0.318
			c0.453,0.196,0.93,0.288,1.414,0.374c0.948,0.165,1.909,0.25,2.87,0.342c1.53,0.153,3.066,0.294,4.584,0.563
			c1.169,0.208,2.326,0.477,3.433,0.942c0.698,0.288,1.353,0.648,1.928,1.15c0.894,0.777,1.396,1.75,1.494,2.932
			c0.128,1.524-0.386,2.772-1.542,3.764c-0.71,0.606-1.53,1.022-2.393,1.353C255.059,265.459,254.012,265.705,252.935,265.87z
			 M290.567,388.117c-18.74,0-33.991-15.245-33.991-33.99c0-18.746,15.245-33.991,33.991-33.991c18.745,0,33.99,15.245,33.99,33.991
			C324.558,372.872,309.312,388.117,290.567,388.117z M332.716,311.439c-0.288,0.092-0.582,0.129-0.882,0.129
			c-2.692,0-4.89-2.191-4.89-4.89v-12.613c0.006-2.969,2.81-5.563,5.691-4.786l26.243,7.123c1.334,0.361,2.258,1.573,2.258,2.95
			c0,2.509-1.903,4.584-4.339,4.859L332.716,311.439z M381.37,423.251c-22.326,0-40.49-18.164-40.49-40.483
			c0-22.326,18.164-40.49,40.49-40.49c22.325,0,40.489,18.164,40.489,40.49C421.859,405.087,403.701,423.251,381.37,423.251z
			 M419.21,325.497c-14.327,0-25.986-11.658-25.986-25.985c0-14.327,11.659-25.985,25.986-25.985
			c14.326,0,25.985,11.659,25.985,25.985C445.189,313.838,433.536,325.497,419.21,325.497z M465.832,372.119
			c-14.327,0-25.985-11.658-25.985-25.985s11.658-25.985,25.985-25.985c14.326,0,25.985,11.658,25.985,25.985
			C491.812,360.46,480.158,372.119,465.832,372.119z M512.454,325.497c-14.327,0-25.985-11.658-25.985-25.985
			c0-14.327,11.658-25.985,25.985-25.985s25.985,11.659,25.985,25.985C538.434,313.838,526.774,325.497,512.454,325.497z"/>
		<path d="M92.971,291.469c-2.46-1.229-14.584-2.925-20.924-2.925c-0.496,0-0.937,0.012-1.31,0.043
			c-1.059,0.073-4.266,0.3-4.272,13.966c0.006,13.708,3.213,13.935,4.266,14.009c0.38,0.03,0.82,0.042,1.316,0.042
			c6.34,0,18.464-1.694,20.924-2.925c1.567-0.783,5.973-6.059,9.669-11.107C98.944,297.535,94.543,292.253,92.971,291.469z"/>
		<path d="M114.018,291.207c5.037-3.697,10.324-8.103,11.102-9.676c1.358-2.705,3.237-17.252,2.882-22.234
			c-0.073-1.059-0.3-4.26-13.966-4.266c-13.708,0.006-13.935,3.207-14.008,4.259c-0.361,4.982,1.523,19.529,2.882,22.24
			C103.687,283.104,108.962,287.51,114.018,291.207z"/>
		<circle cx="465.832" cy="252.889" r="19.865"/>
		<path d="M270.445,261.99c1.407,0.998,2.993,1.444,4.541,1.462c1.181,0,2.167-0.171,3.103-0.52
			c0.067-0.024,0.116-0.074,0.184-0.098c0.012-0.006,0.024,0,0.037-0.006c1.334-0.502,2.467-1.279,3.299-2.454
			c1.114-1.579,1.377-3.292,0.704-5.117c-0.472-1.279-1.334-2.264-2.473-2.986c-0.563-0.355-1.138-0.63-1.72-0.838
			c-1.806-0.704-3.703-0.741-5.667-0.11c-1.396,0.447-2.577,1.236-3.464,2.412c-1.193,1.585-1.53,3.341-0.888,5.232
			C268.535,260.233,269.361,261.218,270.445,261.99z"/>
	</g>
</g>
<g>
</g>
<g>
</g>
<g>
</g>
<g>
</g>
<g>
</g>
<g>
</g>
<g>
</g>
<g>
</g>
<g>
</g>
<g>
</g>
<g>
</g>
<g>
</g>
<g>
</g>
<g>
</g>
<g>
</g>
</svg>
