<svg height="512pt" viewBox="0 0 512 512" width="512pt" xmlns="http://www.w3.org/2000/svg"><path d="m187.734375 153.601562h136.53125v341.332032h-136.53125zm0 0" fill="#475962"/><path d="m187.734375 153.601562h110.933594v341.332032h-110.933594zm0 0" fill="#728f9c"/><path d="m443.734375 204.800781v238.933594c0 15.839844-6.292969 31.035156-17.496094 42.238281-11.203125 11.199219-26.394531 17.492188-42.238281 17.492188h-51.199219c-4.714843 0-8.535156-3.820313-8.535156-8.53125v-341.332032c0-4.714843 3.820313-8.535156 8.535156-8.535156h51.199219c32.988281 0 59.734375 26.742188 59.734375 59.734375zm0 0" fill="#d13d34"/><path d="m418.132812 204.800781v238.933594c0 15.839844-6.292968 31.035156-17.496093 42.238281-11.199219 11.199219-26.394531 17.492188-42.238281 17.492188h-25.597657c-4.714843 0-8.535156-3.820313-8.535156-8.53125v-341.332032c0-4.714843 3.820313-8.535156 8.535156-8.535156h25.597657c32.992187 0 59.734374 26.742188 59.734374 59.734375zm0 0" fill="#f85b44"/><path d="m128 145.066406h51.199219c4.714843 0 8.535156 3.820313 8.535156 8.535156v341.332032c0 4.710937-3.820313 8.53125-8.535156 8.53125h-51.199219c-15.84375 0-31.035156-6.292969-42.238281-17.492188-11.203125-11.203125-17.496094-26.398437-17.496094-42.238281v-238.933594c0-32.992187 26.746094-59.734375 59.734375-59.734375zm0 0" fill="#00c6db"/><g fill="#475962"><path d="m153.601562 238.933594c0 14.136718-11.464843 25.601562-25.601562 25.601562s-25.601562-11.464844-25.601562-25.601562c0-14.140625 11.464843-25.601563 25.601562-25.601563s25.601562 11.460938 25.601562 25.601563zm0 0"/><path d="m409.601562 341.332031c0 14.140625-11.464843 25.601563-25.601562 25.601563s-25.601562-11.460938-25.601562-25.601563c0-14.136719 11.464843-25.597656 25.601562-25.597656s25.601562 11.460937 25.601562 25.597656zm0 0"/><path d="m392.535156 435.199219c0 9.425781-7.644531 17.066406-17.070312 17.066406-9.425782 0-17.066406-7.640625-17.066406-17.066406s7.640624-17.066407 17.066406-17.066407c9.425781 0 17.070312 7.640626 17.070312 17.066407zm0 0"/><path d="m128 418.132812h17.066406c4.714844 0 8.535156 3.820313 8.535156 8.535157v17.066406c0 4.710937-3.820312 8.53125-8.535156 8.53125h-17.066406c-4.710938 0-8.535156-3.820313-8.535156-8.53125v-17.066406c0-4.714844 3.824218-8.535157 8.535156-8.535157zm0 0"/></g><path d="m68.265625 443.734375v-229.71875c-48.640625 45.628906-59.730469 167.96875-59.730469 229.71875 0 25.597656 8.53125 59.730469 34.132813 59.730469 24.140625 0 34.617187-8.199219 42.265625-18.414063-10.703125-11.089843-16.675782-25.90625-16.667969-41.316406zm0 0" fill="#728f9c"/><path d="m503.464844 443.734375c0 25.597656-8.53125 59.730469-34.132813 59.730469-5.558593.054687-11.109375-.488282-16.554687-1.621094-10.421875-2.046875-19.632813-8.078125-25.683594-16.808594 10.660156-11.109375 16.625-25.90625 16.640625-41.300781v-229.71875c48.640625 45.652344 59.730469 167.9375 59.730469 229.71875zm0 0" fill="#475962"/><path d="m477.867188 443.734375c0 22.269531-6.484376 51.027344-25.089844 58.109375-10.421875-2.046875-19.632813-8.078125-25.683594-16.808594 10.660156-11.109375 16.625-25.90625 16.640625-41.300781v-192.597656c27.136719 56.660156 34.132813 143.617187 34.132813 192.597656zm0 0" fill="#728f9c"/><path d="m179.199219 512h-51.199219c-37.683594-.042969-68.222656-30.582031-68.265625-68.265625v-238.933594c.042969-37.6875 30.582031-68.226562 68.265625-68.265625h51.199219c9.425781 0 17.066406 7.640625 17.066406 17.066406v341.332032c0 9.425781-7.640625 17.066406-17.066406 17.066406zm-51.199219-358.398438c-28.265625.027344-51.171875 22.933594-51.199219 51.199219v238.933594c.027344 28.265625 22.933594 51.171875 51.199219 51.199219h51.199219v-341.332032zm0 0"/><path d="m128 273.066406c-18.851562 0-34.132812-15.28125-34.132812-34.132812 0-18.851563 15.28125-34.132813 34.132812-34.132813s34.132812 15.28125 34.132812 34.132813c0 18.851562-15.28125 34.132812-34.132812 34.132812zm0-51.199218c-9.425781 0-17.066406 7.640624-17.066406 17.066406 0 9.425781 7.640625 17.066406 17.066406 17.066406s17.066406-7.640625 17.066406-17.066406c0-9.425782-7.640625-17.066406-17.066406-17.066406zm0 0"/><path d="m384 375.464844c-18.851562 0-34.132812-15.28125-34.132812-34.132813 0-18.851562 15.28125-34.132812 34.132812-34.132812s34.132812 15.28125 34.132812 34.132812c0 18.851563-15.28125 34.132813-34.132812 34.132813zm0-51.199219c-9.425781 0-17.066406 7.640625-17.066406 17.066406s7.640625 17.066407 17.066406 17.066407 17.066406-7.640626 17.066406-17.066407-7.640625-17.066406-17.066406-17.066406zm0 0"/><path d="m375.464844 460.800781c-14.136719 0-25.597656-11.460937-25.597656-25.601562 0-14.136719 11.460937-25.597657 25.597656-25.597657 14.140625 0 25.601562 11.460938 25.601562 25.597657 0 14.140625-11.460937 25.601562-25.601562 25.601562zm0-34.132812c-4.710938 0-8.53125 3.820312-8.53125 8.53125 0 4.714843 3.820312 8.535156 8.53125 8.535156 4.714844 0 8.535156-3.820313 8.535156-8.535156 0-4.710938-3.820312-8.53125-8.535156-8.53125zm0 0"/><path d="m153.601562 187.734375h-17.066406c-4.714844 0-8.535156-3.820313-8.535156-8.535156 0-4.710938 3.820312-8.53125 8.535156-8.53125h17.066406c4.710938 0 8.53125 3.820312 8.53125 8.53125 0 4.714843-3.820312 8.535156-8.53125 8.535156zm0 0"/><path d="m375.464844 187.734375h-17.066406c-4.710938 0-8.53125-3.820313-8.53125-8.535156 0-4.710938 3.820312-8.53125 8.53125-8.53125h17.066406c4.714844 0 8.535156 3.820312 8.535156 8.53125 0 4.714843-3.820312 8.535156-8.535156 8.535156zm0 0"/><path d="m136.535156 315.734375c0 4.710937-3.824218 8.53125-8.535156 8.53125s-8.535156-3.820313-8.535156-8.53125c0-4.714844 3.824218-8.535156 8.535156-8.535156s8.535156 3.820312 8.535156 8.535156zm0 0"/><path d="m136.535156 366.933594c0 4.710937-3.824218 8.53125-8.535156 8.53125s-8.535156-3.820313-8.535156-8.53125c0-4.714844 3.824218-8.535156 8.535156-8.535156s8.535156 3.820312 8.535156 8.535156zm0 0"/><path d="m162.132812 341.332031c0 4.714844-3.820312 8.535157-8.53125 8.535157-4.714843 0-8.535156-3.820313-8.535156-8.535157 0-4.710937 3.820313-8.53125 8.535156-8.53125 4.710938 0 8.53125 3.820313 8.53125 8.53125zm0 0"/><path d="m110.933594 341.332031c0 4.714844-3.820313 8.535157-8.535156 8.535157-4.710938 0-8.53125-3.820313-8.53125-8.535157 0-4.710937 3.820312-8.53125 8.53125-8.53125 4.714843 0 8.535156 3.820313 8.535156 8.53125zm0 0"/><path d="m392.535156 213.332031c0 4.714844-3.824218 8.535157-8.535156 8.535157s-8.535156-3.820313-8.535156-8.535157c0-4.710937 3.824218-8.53125 8.535156-8.53125s8.535156 3.820313 8.535156 8.53125zm0 0"/><path d="m392.535156 264.535156c0 4.710938-3.824218 8.53125-8.535156 8.53125s-8.535156-3.820312-8.535156-8.53125c0-4.714844 3.824218-8.535156 8.535156-8.535156s8.535156 3.820312 8.535156 8.535156zm0 0"/><path d="m418.132812 238.933594c0 4.710937-3.820312 8.53125-8.53125 8.53125-4.714843 0-8.535156-3.820313-8.535156-8.53125 0-4.714844 3.820313-8.535156 8.535156-8.535156 4.710938 0 8.53125 3.820312 8.53125 8.535156zm0 0"/><path d="m366.933594 238.933594c0 4.710937-3.820313 8.53125-8.535156 8.53125-4.710938 0-8.53125-3.820313-8.53125-8.53125 0-4.714844 3.820312-8.535156 8.53125-8.535156 4.714843 0 8.535156 3.820312 8.535156 8.535156zm0 0"/><path d="m145.066406 460.800781h-17.066406c-9.425781 0-17.066406-7.640625-17.066406-17.066406v-17.066406c0-9.425781 7.640625-17.066407 17.066406-17.066407h17.066406c9.425782 0 17.066406 7.640626 17.066406 17.066407v17.066406c0 9.425781-7.640624 17.066406-17.066406 17.066406zm-17.066406-34.132812v17.066406h17.066406v-17.066406zm0 0"/><path d="m324.265625 503.464844h-136.53125c-4.714844 0-8.535156-3.820313-8.535156-8.53125v-341.332032c0-4.714843 3.820312-8.535156 8.535156-8.535156h136.53125c4.714844 0 8.535156 3.820313 8.535156 8.535156v341.332032c0 4.710937-3.820312 8.53125-8.535156 8.53125zm-128-17.066406h119.46875v-324.265626h-119.46875zm0 0"/><path d="m42.667969 512c-29.476563 0-42.667969-34.285156-42.667969-68.265625 0-18.160156 1.75-179.054687 62.429688-235.9375 2.480468-2.328125 6.105468-2.957031 9.226562-1.609375 3.121094 1.351562 5.140625 4.425781 5.144531 7.828125v229.71875c-.011719 13.210937 5.109375 25.90625 14.285157 35.414063 2.886718 3.011718 3.171874 7.671874.671874 11.015624-8.070312 10.800782-20.222656 21.835938-49.089843 21.835938zm17.066406-274.210938c-33.28125 51.328126-42.667969 150.121094-42.667969 205.945313 0 17.707031 5.351563 51.199219 25.601563 51.199219 11.265625 1.148437 22.507812-2.425782 31.042969-9.875-9.085938-11.855469-14-26.386719-13.976563-41.324219zm0 0"/><path d="m384 512h-51.199219c-9.425781 0-17.066406-7.640625-17.066406-17.066406v-341.332032c0-9.425781 7.640625-17.066406 17.066406-17.066406h51.199219c37.683594.039063 68.222656 30.578125 68.265625 68.265625v238.933594c-.042969 37.683594-30.582031 68.222656-68.265625 68.265625zm-51.199219-358.398438v341.332032h51.199219c28.265625-.027344 51.171875-22.933594 51.199219-51.199219v-238.933594c-.027344-28.265625-22.933594-51.171875-51.199219-51.199219zm0 0"/><path d="m469.332031 512c-28.867187 0-41.019531-11.035156-49.097656-21.835938-2.5-3.34375-2.214844-8.003906.671875-11.015624 9.179688-9.503907 14.304688-22.203126 14.292969-35.414063v-229.71875c.003906-3.402344 2.023437-6.476563 5.144531-7.828125 3.121094-1.347656 6.746094-.71875 9.226562 1.609375 60.722657 56.882813 62.429688 217.777344 62.429688 235.9375 0 33.980469-13.191406 68.265625-42.667969 68.265625zm-31.042969-26.941406c8.535157 7.449218 19.773438 11.027344 31.042969 9.875 20.25 0 25.601563-33.492188 25.601563-51.199219 0-55.824219-9.386719-154.617187-42.667969-205.945313v205.945313c.023437 14.9375-4.890625 29.464844-13.976563 41.324219zm0 0"/><path d="m204.800781 460.800781h-17.066406c-4.714844 0-8.535156-3.820312-8.535156-8.535156 0-4.710937 3.820312-8.53125 8.535156-8.53125h17.066406c4.710938 0 8.53125 3.820313 8.53125 8.53125 0 4.714844-3.820312 8.535156-8.53125 8.535156zm0 0"/><path d="m204.800781 409.601562h-17.066406c-4.714844 0-8.535156-3.820312-8.535156-8.535156 0-4.710937 3.820312-8.53125 8.535156-8.53125h17.066406c4.710938 0 8.53125 3.820313 8.53125 8.53125 0 4.714844-3.820312 8.535156-8.53125 8.535156zm0 0"/><path d="m204.800781 358.398438h-17.066406c-4.714844 0-8.535156-3.820313-8.535156-8.53125 0-4.714844 3.820312-8.535157 8.535156-8.535157h17.066406c4.710938 0 8.53125 3.820313 8.53125 8.535157 0 4.710937-3.820312 8.53125-8.53125 8.53125zm0 0"/><path d="m204.800781 307.199219h-17.066406c-4.714844 0-8.535156-3.820313-8.535156-8.53125 0-4.714844 3.820312-8.535157 8.535156-8.535157h17.066406c4.710938 0 8.53125 3.820313 8.53125 8.535157 0 4.710937-3.820312 8.53125-8.53125 8.53125zm0 0"/><path d="m204.800781 256h-17.066406c-4.714844 0-8.535156-3.820312-8.535156-8.535156 0-4.710938 3.820312-8.53125 8.535156-8.53125h17.066406c4.710938 0 8.53125 3.820312 8.53125 8.53125 0 4.714844-3.820312 8.535156-8.53125 8.535156zm0 0"/><path d="m204.800781 204.800781h-17.066406c-4.714844 0-8.535156-3.820312-8.535156-8.535156 0-4.710937 3.820312-8.53125 8.535156-8.53125h17.066406c4.710938 0 8.53125 3.820313 8.53125 8.53125 0 4.714844-3.820312 8.535156-8.53125 8.535156zm0 0"/><path d="m324.265625 460.800781h-17.066406c-4.710938 0-8.53125-3.820312-8.53125-8.535156 0-4.710937 3.820312-8.53125 8.53125-8.53125h17.066406c4.714844 0 8.535156 3.820313 8.535156 8.53125 0 4.714844-3.820312 8.535156-8.535156 8.535156zm0 0"/><path d="m324.265625 409.601562h-17.066406c-4.710938 0-8.53125-3.820312-8.53125-8.535156 0-4.710937 3.820312-8.53125 8.53125-8.53125h17.066406c4.714844 0 8.535156 3.820313 8.535156 8.53125 0 4.714844-3.820312 8.535156-8.535156 8.535156zm0 0"/><path d="m324.265625 358.398438h-17.066406c-4.710938 0-8.53125-3.820313-8.53125-8.53125 0-4.714844 3.820312-8.535157 8.53125-8.535157h17.066406c4.714844 0 8.535156 3.820313 8.535156 8.535157 0 4.710937-3.820312 8.53125-8.535156 8.53125zm0 0"/><path d="m324.265625 307.199219h-17.066406c-4.710938 0-8.53125-3.820313-8.53125-8.53125 0-4.714844 3.820312-8.535157 8.53125-8.535157h17.066406c4.714844 0 8.535156 3.820313 8.535156 8.535157 0 4.710937-3.820312 8.53125-8.535156 8.53125zm0 0"/><path d="m324.265625 256h-17.066406c-4.710938 0-8.53125-3.820312-8.53125-8.535156 0-4.710938 3.820312-8.53125 8.53125-8.53125h17.066406c4.714844 0 8.535156 3.820312 8.535156 8.53125 0 4.714844-3.820312 8.535156-8.535156 8.535156zm0 0"/><path d="m324.265625 204.800781h-17.066406c-4.710938 0-8.53125-3.820312-8.53125-8.535156 0-4.710937 3.820312-8.53125 8.53125-8.53125h17.066406c4.714844 0 8.535156 3.820313 8.535156 8.53125 0 4.714844-3.820312 8.535156-8.535156 8.535156zm0 0"/><path d="m503.464844 128c-4.710938 0-8.53125-3.820312-8.53125-8.535156-.0625-56.527344-45.871094-102.335938-102.398438-102.398438-4.714844 0-8.535156-3.820312-8.535156-8.53125 0-4.714844 3.820312-8.535156 8.535156-8.535156 65.949219.0703125 119.394532 53.515625 119.464844 119.464844 0 4.714844-3.820312 8.535156-8.535156 8.535156zm0 0"/><path d="m469.332031 128c-4.710937 0-8.53125-3.820312-8.53125-8.535156-.042969-37.683594-30.582031-68.222656-68.265625-68.265625-4.714844 0-8.535156-3.820313-8.535156-8.53125 0-4.714844 3.820312-8.535157 8.535156-8.535157 47.105469.050782 85.28125 38.226563 85.332032 85.332032 0 2.265625-.898438 4.433594-2.5 6.035156-1.601563 1.601562-3.769532 2.5-6.035157 2.5zm0 0"/><path d="m435.199219 128c-4.710938 0-8.53125-3.820312-8.53125-8.535156 0-18.847656-15.285157-34.132813-34.132813-34.132813-4.714844 0-8.535156-3.820312-8.535156-8.53125 0-4.714843 3.820312-8.535156 8.535156-8.535156 28.261719.027344 51.171875 22.9375 51.199219 51.199219 0 4.714844-3.820313 8.535156-8.535156 8.535156zm0 0"/><path d="m8.535156 128c-4.714844 0-8.535156-3.820312-8.535156-8.535156.0703125-65.949219 53.515625-119.3945315 119.464844-119.464844 4.714844 0 8.535156 3.820312 8.535156 8.535156 0 4.710938-3.820312 8.53125-8.535156 8.53125-56.527344.0625-102.335938 45.871094-102.398438 102.398438 0 4.714844-3.820312 8.535156-8.53125 8.535156zm0 0"/><path d="m42.667969 128c-4.714844 0-8.535157-3.820312-8.535157-8.535156.050782-47.105469 38.226563-85.28125 85.332032-85.332032 4.714844 0 8.535156 3.820313 8.535156 8.535157 0 4.710937-3.820312 8.53125-8.535156 8.53125-37.683594.042969-68.222656 30.582031-68.265625 68.265625 0 4.714844-3.820313 8.535156-8.53125 8.535156zm0 0"/><path d="m76.800781 128c-4.714843 0-8.535156-3.820312-8.535156-8.535156.027344-28.261719 22.9375-51.171875 51.199219-51.199219 4.714844 0 8.535156 3.820313 8.535156 8.535156 0 4.710938-3.820312 8.53125-8.535156 8.53125-18.847656 0-34.132813 15.285157-34.132813 34.132813 0 4.714844-3.820312 8.535156-8.53125 8.535156zm0 0"/></svg>