<?xml version="1.0" encoding="UTF-8" standalone="no"?>
<svg
   xmlns:dc="http://purl.org/dc/elements/1.1/"
   xmlns:cc="http://creativecommons.org/ns#"
   xmlns:rdf="http://www.w3.org/1999/02/22-rdf-syntax-ns#"
   xmlns:svg="http://www.w3.org/2000/svg"
   xmlns="http://www.w3.org/2000/svg"
   viewBox="0 0 763.56 552.38666"
   height="552.38666"
   width="763.56"
   xml:space="preserve"
   id="svg2"
   version="1.1"><metadata
     id="metadata8"><rdf:RDF><cc:Work
         rdf:about=""><dc:format>image/svg+xml</dc:format><dc:type
           rdf:resource="http://purl.org/dc/dcmitype/StillImage" /></cc:Work></rdf:RDF></metadata><defs
     id="defs6"><clipPath
       id="clipPath428"
       clipPathUnits="userSpaceOnUse"><path
         id="path426"
         d="m 2031.91,176.258 -929.79,1.531 v 0 h 124.35 v 0 l 805.36,-1.32 0.08,-0.211" /></clipPath></defs><g
     transform="matrix(1.3333333,0,0,-1.3333333,0,552.38667)"
     id="g10"><g
       transform="scale(0.1)"
       id="g12"><path
         id="path14"
         style="fill:#ffffff;fill-opacity:1;fill-rule:nonzero;stroke:none"
         d="m 3649.15,1631.03 c 0,0 -4.6,-191.92 204.1,-293.08 208.69,-101.15 507.87,5.59 552.8,78.01 44.92,72.42 -152.07,-15.76 -251.98,-26.14 -99.92,-10.37 -329.92,-17.61 -387.39,201.28 -57.48,218.89 -148.02,163.64 -117.53,39.93" /><path
         id="path16"
         style="fill:#ffffff;fill-opacity:1;fill-rule:nonzero;stroke:none"
         d="m 2007.08,3456.03 c 0,0 553.66,127.38 977.97,-93.4 424.31,-220.78 202.79,66.83 -117.58,158.21 -446.26,127.28 -871.2,45.02 -1012.8,-73.22 -89.97,-75.12 152.41,8.41 152.41,8.41" /><path
         id="path18"
         style="fill:#ffffff;fill-opacity:1;fill-rule:nonzero;stroke:none"
         d="m 3306.6,3226.27 c 0,0 148.27,-97.44 140.48,-132.45 -7.77,-35.02 -82.98,7.78 -125.78,49.27 -42.8,41.5 -96.83,124.86 -14.7,83.18" /><path
         id="path20"
         style="fill:#ffffff;fill-opacity:1;fill-rule:nonzero;stroke:none"
         d="m 432.27,240.031 c 0,0 -414.9809,415.789 -27.668,815.639 239.539,247.3 622.968,138.36 998.798,29.41 231.84,-67.21 460.79,-134.42 651.29,-118.002 774.06,66.742 703.16,1161.392 -22.78,1324.442 -372.3,83.61 -345.47,-44.5 -283.64,-172.62 58.74,-121.7 149.07,-243.4 -41.12,-183.61 -830.517,261.12 -704.98,1436.44 581.7,1466.52 1286.69,30.08 1355.2,-1009.63 1260.67,-1550.61 -115.94,-663.6 520.7,-862.122 1252.76,-343.88 603.65,427.33 948.59,-435.57 561.28,-1267.289 H 432.27" /><path
         id="path22"
         style="fill:#ffffff;fill-opacity:1;fill-rule:nonzero;stroke:none"
         d="m 1102.12,1165.89 c 0,0 262.88,-82.9 413.71,34.09 126.77,98.31 51.62,312.64 -232.11,391.12 -283.72,78.48 109.46,127.26 474.61,22.64 395.53,-113.34 375,-634.388 -167.5,-603.33 -357.84,20.49 -488.71,155.48 -488.71,155.48" /><path
         id="path24"
         style="fill:#342f6a;fill-opacity:1;fill-rule:nonzero;stroke:none"
         d="m 1497.54,967.078 c 0,0 321.44,-116.148 615.38,-80.129 293.94,36.02 314.69,186.091 394.23,195.781 79.53,9.7 -34.8,-254.929 -388.18,-293.742 -414.98,-45.57 -827.23,233.392 -621.43,178.09" /><path
         id="path26"
         style="fill:#342f6a;fill-opacity:1;fill-rule:nonzero;stroke:none"
         d="m 431.836,360.16 c 0,0 -88.184,132.879 -111.523,277.82 -23.348,144.938 52.304,260.711 86.019,267.192 33.715,6.476 -2.687,-85.883 -23.773,-161.152 -16.114,-57.512 2.589,-185.442 47.976,-280.11 45.391,-94.672 49.371,-190.492 1.301,-103.75" /><path
         id="path28"
         style="fill:#342f6a;fill-opacity:1;fill-rule:nonzero;stroke:none"
         d="m 431.867,956.691 c 0,0 32.852,60.519 62.246,63.979 29.395,3.46 0.867,-47.549 -20.746,-63.979 -21.617,-16.421 -63.043,-32.531 -41.5,0" /><path
         id="path30"
         style="fill:#342f6a;fill-opacity:1;fill-rule:nonzero;stroke:none"
         d="m 2541.49,177.789 c 41.74,0 438.99,120.172 510.1,629.789 71.1,509.622 350.03,329.612 482.62,95.531 132.59,-234.07 702.13,-651.75 1307.25,-95.531 605.12,556.232 489.52,-281.68 345.01,-526.648 C 5041.96,35.9609 2541.49,177.789 2541.49,177.789" /><path
         id="path32"
         style="fill:#27254d;fill-opacity:1;fill-rule:nonzero;stroke:none"
         d="M 5726.66,175.121 C 5726.66,78.3984 4444.71,0 2863.33,0 1281.96,0 0,78.3984 0,175.121 0,271.84 1281.96,350.25 2863.33,350.25 c 1581.38,0 2863.33,-78.41 2863.33,-175.129" /><path
         id="path34"
         style="fill:#342f6a;fill-opacity:1;fill-rule:nonzero;stroke:none"
         d="m 2773.49,1478.21 h -975.56 c -40.48,0 -74.68,-29.99 -79.97,-70.12 L 1567.72,269 c -6.37,-48.32 31.23,-91.211 79.97,-91.211 h 975.57 c 40.47,0 74.68,29.992 79.98,70.121 l 150.23,1139.08 c 6.37,48.33 -31.24,91.22 -79.98,91.22 m 0,-62.25 c 7.27,0 11.8,-3.93 13.86,-6.28 2.05,-2.34 5.36,-7.35 4.41,-14.55 L 2641.52,256.051 c -1.2,-9.133 -9.06,-16.02 -18.26,-16.02 h -975.57 c -7.26,0 -11.79,3.938 -13.85,6.278 -2.06,2.351 -5.36,7.359 -4.41,14.55 l 150.24,1139.091 c 1.2,9.13 9.05,16.01 18.26,16.01 h 975.56" /><path
         id="path36"
         style="fill:#44378d;fill-opacity:1;fill-rule:nonzero;stroke:none"
         d="m 2827.72,1400.2 h -976.96 c -44.55,0 -80.67,-36.12 -80.67,-80.67 V 258.449 c 0,-44.551 36.12,-80.66 80.67,-80.66 h 976.96 c 44.55,0 80.67,36.109 80.67,80.66 V 1319.53 c 0,44.55 -36.12,80.67 -80.67,80.67 m 0,-62.25 c 10.16,0 18.43,-8.27 18.43,-18.42 V 258.449 c 0,-10.148 -8.27,-18.418 -18.43,-18.418 h -976.96 c -10.16,0 -18.42,8.27 -18.42,18.418 V 1319.53 c 0,10.15 8.26,18.42 18.42,18.42 h 976.96" /><path
         id="path38"
         style="fill:#342f6a;fill-opacity:1;fill-rule:nonzero;stroke:none"
         d="m 1858.48,1563.18 v 1175.35 c 0,68.84 51.89,124.64 115.92,124.64 h -199.49 c -64.02,0 -115.92,-55.8 -115.92,-124.64 V 1563.18 c 0,-68.84 51.9,-124.65 115.92,-124.65 h 199.49 c -64.03,0 -115.92,55.81 -115.92,124.65" /><path
         id="path40"
         style="fill:#44378d;fill-opacity:1;fill-rule:nonzero;stroke:none"
         d="M 2893.71,1331.25 H 1774.77 c -37.34,0 -67.62,30.28 -67.62,67.62 h 1254.18 c 0,-37.34 -30.27,-67.62 -67.62,-67.62" /><path
         id="path42"
         style="fill:#9d2832;fill-opacity:1;fill-rule:nonzero;stroke:none"
         d="m 2637.05,1438.53 h -813.98 c -64.02,0 -115.92,55.81 -115.92,124.65 v 1175.35 c 0,68.84 51.9,124.64 115.92,124.64 h 813.98 c 64.02,0 115.92,-55.8 115.92,-124.64 V 1563.18 c 0,-68.84 -51.9,-124.65 -115.92,-124.65" /><path
         id="path44"
         style="fill:#ed126c;fill-opacity:1;fill-rule:nonzero;stroke:none"
         d="m 2668.22,1438.53 h -813.99 c -64.02,0 -115.92,55.81 -115.92,124.65 v 1175.35 c 0,68.84 51.9,124.64 115.92,124.64 h 813.99 c 64.01,0 115.91,-55.8 115.91,-124.64 V 1563.18 c 0,-68.84 -51.9,-124.65 -115.91,-124.65" /><path
         id="path46"
         style="fill:#df1265;fill-opacity:1;fill-rule:nonzero;stroke:none"
         d="m 1906.64,1563.18 v 1175.35 c 0,68.84 51.9,124.64 115.92,124.64 h -199.49 c -64.02,0 -115.92,-55.8 -115.92,-124.64 V 1563.18 c 0,-68.84 51.9,-124.65 115.92,-124.65 h 199.49 c -64.02,0 -115.92,55.81 -115.92,124.65" /><path
         id="path48"
         style="fill:#342f6a;fill-opacity:1;fill-rule:nonzero;stroke:none"
         d="M 3003.95,1398.87 H 1754.79 c -26.31,0 -47.64,21.33 -47.64,47.64 v 103.4 c 0,26.31 21.33,47.63 47.64,47.63 h 1249.16 c 26.31,0 47.64,-21.32 47.64,-47.63 v -103.4 c 0,-26.31 -21.33,-47.64 -47.64,-47.64" /><path
         id="path50"
         style="fill:#342f6a;fill-opacity:1;fill-rule:nonzero;stroke:none"
         d="m 2097.2,1446.51 v 103.4 c 0,26.31 21.33,47.63 47.64,47.63 h -438.21 c -26.31,0 -47.64,-21.32 -47.64,-47.63 v -103.4 c 0,-26.31 21.33,-47.64 47.64,-47.64 h 438.21 c -26.31,0 -47.64,21.33 -47.64,47.64" /><path
         id="path52"
         style="fill:#f6839b;fill-opacity:1;fill-rule:nonzero;stroke:none"
         d="m 3000.07,2703.97 c 4.86,-12.56 11.86,-24.18 21.05,-34.03 12.61,-13.55 7.84,-12.49 -9.67,-127.21 -18.97,-124.32 -36.18,-108.93 -36.18,-108.93 -57.35,1.94 -147.81,16.2 -233.3,40.18 0,0 -43.56,-84.64 -83.65,-130.21 0,0 283.1,-81.31 382.04,-58.09 92.98,38.72 78.3,331.77 78.3,331.77 0,0 44.19,150.31 39.44,168.8 -4.76,18.49 -89.53,36.48 -108.5,33.62 -18.96,-2.85 -20.77,-83.94 -20.77,-83.94 0,0 -13.64,33.16 -19.73,34.96 -6.1,1.8 -20.33,-6.31 -25.84,-9.49 -3.77,-2.17 8.6,-36.13 16.81,-57.43" /><path
         id="path54"
         style="fill:#f36280;fill-opacity:1;fill-rule:nonzero;stroke:none"
         d="m 3150.73,2737.47 -68.56,-26.64 c -21.63,-8.4 -45.91,2.91 -53.39,24.88 l -0.59,1.76 h 122.54" /><path
         id="path56"
         style="fill:#f36280;fill-opacity:1;fill-rule:nonzero;stroke:none"
         d="m 2815.85,2455.82 c 0,0 -88.77,-59.16 -93.77,-72.91 -3.4,-9.36 1.6,-32.73 5.13,-57.34 31.16,-7.75 70.04,-16.79 110.36,-24.67 3.37,71.21 -21.72,154.92 -21.72,154.92" /><path
         id="path58"
         style="fill:#44378d;fill-opacity:1;fill-rule:nonzero;stroke:none"
         d="m 2386.64,2504.71 c 0,0 14.49,108.43 182.67,57.78 168.19,-50.64 250.1,-50.39 250.1,-50.39 0,0 4.9,-132.39 -69.43,-220.58 -9.1,2.12 -365.14,78.88 -363.34,213.19" /><path
         id="path60"
         style="fill:#f6839b;fill-opacity:1;fill-rule:nonzero;stroke:none"
         d="m 2533.03,1903.72 c 0,0 546.55,-267.49 659.73,-452.49 C 3305.93,1266.24 3410,747.309 3410,747.309 l -79.77,-23.43 c 0,0 -123.18,148.922 -284.03,588.771 0,0 -616.06,155.41 -723.92,380.81 -107.86,225.4 210.75,210.26 210.75,210.26" /><path
         id="path62"
         style="fill:#3d3e9e;fill-opacity:1;fill-rule:nonzero;stroke:none"
         d="m 3252.83,807.578 151.45,53.024 c -43.88,178.618 -109.94,457.088 -192.51,592.058 -113.17,184.99 -678.74,451.06 -678.74,451.06 0,0 -318.61,15.14 -210.75,-210.26 107.86,-225.4 711.77,-403.63 711.77,-403.63 98.41,-269.14 160.2,-378.889 218.78,-482.252" /><path
         id="path64"
         style="fill:#ffffff;fill-opacity:1;fill-rule:nonzero;stroke:none"
         d="m 2473.58,1609.75 c 0.36,-0.26 211.21,-160.51 597.53,-276.58 l 1.44,4.78 -4.77,-1.5 c 0.06,-0.15 76.46,-242.66 195.73,-469.411 l 2,-3.809 83.61,29.079 -3.29,9.453 -79.54,-27.672 1.64,-4.719 4.43,2.328 c -59.37,112.86 -108.16,229.851 -142.08,318.591 -16.96,44.37 -30.2,81.68 -39.21,107.89 -4.5,13.1 -7.94,23.43 -10.25,30.48 -2.32,7.05 -3.5,10.79 -3.5,10.8 l -0.8,2.52 -2.53,0.76 c -192.42,57.82 -341.1,126.62 -441.63,180.95 -50.26,27.16 -88.49,50.7 -114.12,67.43 -12.82,8.37 -22.5,15.03 -28.95,19.6 -3.23,2.28 -5.65,4.04 -7.27,5.22 -1.61,1.18 -2.38,1.77 -2.38,1.78 l -6.06,-7.97" /><path
         id="path66"
         style="fill:#4142a1;fill-opacity:1;fill-rule:nonzero;stroke:none"
         d="m 3410,747.309 204.93,-5.778 8.5,-28.953 -273.23,-80.226 -19.97,91.527 79.77,23.43" /><path
         id="path68"
         style="fill:#ffffff;fill-opacity:1;fill-rule:nonzero;stroke:none"
         d="m 3503.22,726.531 -1.9,-0.211 c -2.86,0.219 -5,2.711 -4.78,5.559 l 1.65,21.922 c 0.21,2.847 2.71,4.969 5.55,4.777 2.86,-0.219 5,-2.707 4.79,-5.558 l -1.65,-21.918 c -0.17,-2.204 -1.68,-3.973 -3.66,-4.571" /><path
         id="path70"
         style="fill:#ffffff;fill-opacity:1;fill-rule:nonzero;stroke:none"
         d="m 3477.42,727.012 -1.89,-0.211 c -2.86,0.219 -5,2.711 -4.79,5.558 l 1.65,21.922 c 0.21,2.848 2.71,4.969 5.55,4.778 2.86,-0.219 5,-2.707 4.79,-5.559 l -1.65,-21.922 c -0.16,-2.199 -1.68,-3.969 -3.66,-4.566" /><path
         id="path72"
         style="fill:#ffffff;fill-opacity:1;fill-rule:nonzero;stroke:none"
         d="m 3451.61,727.5 -1.88,-0.211 c -2.86,0.219 -5,2.699 -4.79,5.57 l 1.65,21.911 c 0.21,2.851 2.73,4.968 5.55,4.789 2.86,-0.231 5,-2.719 4.79,-5.571 l -1.64,-21.918 c -0.17,-2.191 -1.68,-3.968 -3.68,-4.57" /><path
         id="path74"
         style="fill:#f6839b;fill-opacity:1;fill-rule:nonzero;stroke:none"
         d="m 2329.8,1767.85 c 0,0 270.88,-544.89 248.1,-760.55 C 2555.11,791.641 2321.85,316.539 2321.85,316.539 L 2244.3,346.5 c 0,0 -7.1,193.121 132.97,640.039 0,0 -394.24,498.251 -342.65,742.741 51.6,244.49 295.18,38.57 295.18,38.57" /><path
         id="path76"
         style="fill:#4142a1;fill-opacity:1;fill-rule:nonzero;stroke:none"
         d="m 2233.83,460.02 152.44,-50.102 c 73.89,168.422 183.86,430.5 207.58,586.941 59.48,392.291 -207.59,778.121 -207.59,778.121 0,0 -300.04,198.79 -351.64,-45.7 -51.59,-244.49 319.11,-753.46 319.11,-753.46 -85.71,-273.449 -103.48,-398.129 -119.9,-515.8" /><path
         id="path78"
         style="fill:#ffffff;fill-opacity:1;fill-rule:nonzero;stroke:none"
         d="m 2094.21,1605.23 c 0.15,-0.66 45.38,-198.72 305.01,-593.36 l 4.18,2.74 -4.75,1.56 C 2398.62,1016 2294.82,698.699 2272.21,494.23 l -0.43,-3.878 90.95,-33.731 3.48,9.379 -87.29,32.359 -1.74,-4.679 4.97,-0.551 c 11.17,101.25 42.68,231.371 71.39,336.019 14.36,52.34 28.02,98.332 38.08,131.231 5.03,16.449 9.17,29.621 12.05,38.691 2.87,9.06 4.48,13.98 4.48,13.99 l 0.75,2.29 -1.32,2.01 c -129.54,196.91 -205.49,344.6 -249.02,442.98 -21.77,49.19 -35.44,86.05 -43.66,110.57 -4.11,12.26 -6.85,21.44 -8.56,27.53 -0.86,3.05 -1.46,5.32 -1.84,6.82 -0.38,1.5 -0.54,2.19 -0.54,2.19 l -9.75,-2.22" /><path
         id="path80"
         style="fill:#4142a1;fill-opacity:1;fill-rule:nonzero;stroke:none"
         d="m 2321.85,316.539 159.09,-129.309 -10.87,-28.128 -265.63,102.609 39.86,84.789 77.55,-29.961" /><path
         id="path82"
         style="fill:#ffffff;fill-opacity:1;fill-rule:nonzero;stroke:none"
         d="m 2383.17,243.32 -1.63,0.981 c -2.13,1.929 -2.32,5.199 -0.41,7.34 l 14.64,16.379 c 1.91,2.14 5.19,2.3 7.32,0.421 2.14,-1.921 2.32,-5.191 0.41,-7.332 l -14.64,-16.39 c -1.46,-1.641 -3.74,-2.129 -5.69,-1.399" /><path
         id="path84"
         style="fill:#ffffff;fill-opacity:1;fill-rule:nonzero;stroke:none"
         d="m 2362.99,259.41 -1.62,0.981 c -2.14,1.918 -2.33,5.187 -0.42,7.328 l 14.64,16.39 c 1.91,2.129 5.18,2.282 7.32,0.411 2.14,-1.918 2.32,-5.192 0.41,-7.329 l -14.64,-16.382 c -1.46,-1.661 -3.75,-2.129 -5.69,-1.399" /><path
         id="path86"
         style="fill:#ffffff;fill-opacity:1;fill-rule:nonzero;stroke:none"
         d="m 2342.82,275.488 -1.63,0.992 c -2.13,1.911 -2.32,5.18 -0.41,7.321 l 14.64,16.39 c 1.91,2.137 5.2,2.289 7.32,0.418 2.14,-1.918 2.32,-5.199 0.41,-7.328 l -14.64,-16.39 c -1.47,-1.641 -3.75,-2.129 -5.69,-1.403" /><path
         id="path88"
         style="fill:#2b2956;fill-opacity:1;fill-rule:nonzero;stroke:none"
         d="m 2517.67,2995.12 c 0,0 34.91,-118.59 -34.91,-145.64 -69.82,-27.05 -78.4,151.88 -65.35,158.35 13.05,6.47 100.26,-12.71 100.26,-12.71" /><path
         id="path90"
         style="fill:#342f6a;fill-opacity:1;fill-rule:nonzero;stroke:none"
         d="m 2263.07,2636.99 -221,-75.59 c -48.04,-17.2 -82.29,-59.99 -88.52,-110.64 -23.67,-192.58 -50.49,-599.04 -31.46,-795.6 59.46,-109.57 308.42,31.87 442.88,40.93 356.1,24 419.16,49.69 419.16,49.69 l -193.19,749.39 c -10.81,48.68 -47.57,87.44 -95.61,100.81 l -138.51,38.53 -93.75,2.48" /><path
         id="path92"
         style="fill:#44378d;fill-opacity:1;fill-rule:nonzero;stroke:none"
         d="m 2359.97,2433.43 36.08,-80.73 87.93,9.37 -65.63,-59.26 36.08,-80.73 -76.64,44.11 -65.63,-59.26 18.26,86.52 -76.64,44.1 87.93,9.36 18.26,86.52" /><path
         id="path94"
         style="fill:#f6839b;fill-opacity:1;fill-rule:nonzero;stroke:none"
         d="m 2379.21,2720.29 -2.54,-123.17 c -0.4,-19.28 -12.82,-36.54 -31.27,-42.15 -19.82,-6.02 -47.63,-9.26 -78.63,2.58 -20.84,7.96 -31.94,30.81 -26.69,52.5 l 26.65,110.11 112.48,0.13" /><path
         id="path96"
         style="fill:#f36280;fill-opacity:1;fill-rule:nonzero;stroke:none"
         d="m 2264.21,2709.75 c 0,0 27.46,-72.76 113.11,-80.94 l 1.89,91.48 -102.14,-0.12 c -7.7,-6.08 -12.86,-10.42 -12.86,-10.42" /><path
         id="path98"
         style="fill:#f6839b;fill-opacity:1;fill-rule:nonzero;stroke:none"
         d="m 2171.69,2847.12 c 26.08,4.34 42.48,-11.88 42.48,-11.88 0,0 -50.16,148.98 18.37,166.82 68.54,17.83 147.8,30.46 201.82,24.79 54.02,-5.68 49.63,-31.15 57.77,-80.37 0,0 26.84,-193.9 -60.47,-265.66 -60.78,-49.97 -182.13,16.5 -200.99,74.33 0,0 -51.69,-12.76 -76.17,39.8 -18.3,39.28 1.95,49.64 17.19,52.17" /><path
         id="path100"
         style="fill:#f03d6d;fill-opacity:1;fill-rule:nonzero;stroke:none"
         d="m 2382.72,2839.09 48.39,-58.24 -51.35,-6.25 z" /><path
         id="path102"
         style="fill:#342f6a;fill-opacity:1;fill-rule:nonzero;stroke:none"
         d="m 2214.17,2835.24 c 0,0 23.98,24.45 18.95,90.58 -5.04,66.11 102.01,-4.01 214.28,10.34 70.84,9.05 102.42,70.08 92.22,134.27 -12,75.52 -97.08,131.37 -100.94,115.37 -12.46,-51.67 -249.56,56.02 -269.88,-101.05 0,0 -82.21,-18.75 -74.65,-88.35 7.57,-69.6 72.24,-150.47 72.24,-150.47 0,0 26.73,6.75 47.78,-10.69" /><path
         id="path104"
         style="fill:#44378d;fill-opacity:1;fill-rule:nonzero;stroke:none"
         d="m 2308.76,2948.03 c 0,0 58.98,0.14 65.72,59 6.73,58.86 -12.33,68.48 -12.33,68.48 0,0 63.71,-15.7 55.29,-90.62 0,0 22.21,9.74 27.17,35.73 0,0 26.03,-57.33 -25.18,-81.88 0,0 -42.65,-21.92 -110.67,9.29" /><path
         id="path106"
         style="fill:#342f6a;fill-opacity:1;fill-rule:nonzero;stroke:none"
         d="m 2294.57,2951.38 c 0,0 89.99,-24.17 93.25,-76.93 0,0 12.53,25.73 2.41,52.5 0,0 15.86,-2.79 23.29,-20.67 0,0 6.57,42.74 -37.73,56.92 -18.27,5.85 -45.44,7.76 -81.22,-11.82" /><path
         id="path108"
         style="fill:#342f6a;fill-opacity:1;fill-rule:nonzero;stroke:none"
         d="m 2330.93,2848.11 c 1.24,-11.06 -4.29,-20.76 -12.34,-21.67 -8.05,-0.9 -15.59,7.32 -16.83,18.38 -1.25,11.06 4.27,20.76 12.33,21.67 8.06,0.9 15.59,-7.33 16.84,-18.38" /><path
         id="path110"
         style="fill:#342f6a;fill-opacity:1;fill-rule:nonzero;stroke:none"
         d="m 2457.31,2855.04 c 1.24,-11.06 -4.28,-20.76 -12.34,-21.66 -8.05,-0.9 -15.59,7.32 -16.83,18.38 -1.24,11.06 4.28,20.76 12.33,21.67 8.06,0.9 15.6,-7.33 16.84,-18.39" /><path
         id="path112"
         style="fill:#342f6a;fill-opacity:1;fill-rule:nonzero;stroke:none"
         d="m 2262.77,2880.19 c 0,0 32.71,22.19 86.56,17.4 0,0 -20.35,17.71 -49.85,12.24 -25.46,-4.72 -36.71,-29.64 -36.71,-29.64" /><path
         id="path114"
         style="fill:#342f6a;fill-opacity:1;fill-rule:nonzero;stroke:none"
         d="m 2419.32,2897.8 c 0,0 29.52,10.25 69.65,-4.43 0,0 -11.91,17.69 -35.55,19.55 -20.41,1.61 -34.1,-15.12 -34.1,-15.12" /><path
         id="path116"
         style="fill:#342f6a;fill-opacity:1;fill-rule:nonzero;stroke:none"
         d="M 2433.23,2758.43 2339.5,2751 c 0,0 17.17,-47.72 50.45,-50 33.29,-2.27 43.28,57.43 43.28,57.43" /><path
         id="path118"
         style="fill:#f03d6d;fill-opacity:1;fill-rule:nonzero;stroke:none"
         d="m 2349.59,2730.92 c 6.33,5.44 49.44,2.64 64.91,-17.86 -6.23,-7.54 -14.27,-12.76 -24.55,-12.05 -18.5,1.26 -32,16.56 -40.36,29.91" /><path
         id="path120"
         style="fill:#f6839b;fill-opacity:1;fill-rule:nonzero;stroke:none"
         d="m 2210.09,1933.82 c -12.98,-3.61 -25.21,-9.46 -35.9,-17.65 -14.71,-11.26 -13.2,-6.6 -125.7,21.88 -121.9,30.87 -104.92,46.53 -104.92,46.53 7.46,56.88 30.38,145.55 62.5,228.33 0,0 -80.05,51.52 -121.54,95.82 0,0 -108.24,-273.94 -94.67,-374.66 29.57,-96.28 322.67,-109.92 322.67,-109.92 0,0 145.35,-58.5 164.21,-55.55 18.86,2.95 44.94,85.6 43.93,104.75 -1.01,19.15 -81.55,28.76 -81.55,28.76 0,0 34.32,10.39 36.7,16.28 2.38,5.89 -4.32,20.83 -6.95,26.63 -1.8,3.97 -36.79,-5.07 -58.78,-11.2" /><path
         id="path122"
         style="fill:#f36280;fill-opacity:1;fill-rule:nonzero;stroke:none"
         d="m 1850.4,2199.85 9.85,32.94 c 0,0 29.81,-13.47 78.95,-22.67 28,-5.24 45.19,-14.65 57.07,-23.49 -12.99,-36.06 -24.13,-72.43 -32.97,-106.22 -83.02,50.58 -113.04,118.73 -113.08,118.82 l 0.18,0.62" /><path
         id="path124"
         style="fill:#44378d;fill-opacity:1;fill-rule:nonzero;stroke:none"
         d="m 2070.93,2563.62 c 0,0 106.53,-24.88 39.89,-187.39 -66.64,-162.52 -74.28,-244.07 -74.28,-244.07 0,0 -132.25,7.88 -212.86,90.38 2.99,8.85 113.74,355.82 247.25,341.08" /><path
         id="path126"
         style="fill:#b5b0d1;fill-opacity:1;fill-rule:nonzero;stroke:none"
         d="m 885.203,1606.34 h 3956.26 v 139.441 H 885.203 Z" /><path
         id="path128"
         style="fill:#9e9ac6;fill-opacity:1;fill-rule:nonzero;stroke:none"
         d="m 1076.18,1507.32 h 3574.31 v 99.0195 H 1076.18 Z" /><path
         id="path130"
         style="fill:#8282b9;fill-opacity:1;fill-rule:nonzero;stroke:none"
         d="M 4650.49,1575.86 H 1076.18 v 30.48 h 3574.31 v -30.48" /><path
         id="path132"
         style="fill:#44378d;fill-opacity:1;fill-rule:nonzero;stroke:none"
         d="m 1333.84,177.789 h -90.94 l -60.63,1329.531 h 212.19 L 1333.84,177.789" /><path
         id="path134"
         style="fill:#726ea5;fill-opacity:1;fill-rule:nonzero;stroke:none"
         d="m 1391.81,1449.1 v 0 l 2.65,58.22 -2.65,-58.22 m -206.88,0 v 0 l -2.66,58.22 2.66,-58.22" /><path
         id="path136"
         style="fill:#3a317a;fill-opacity:1;fill-rule:nonzero;stroke:none"
         d="m 1391.81,1449.1 h -206.88 l -2.66,58.22 h 212.19 l -2.65,-58.22" /><path
         id="path138"
         style="fill:#44378d;fill-opacity:1;fill-rule:nonzero;stroke:none"
         d="m 4392.83,177.789 h 90.94 l 60.63,1329.531 h -212.2 l 60.63,-1329.531" /><path
         id="path140"
         style="fill:#3a317a;fill-opacity:1;fill-rule:nonzero;stroke:none"
         d="m 4541.74,1449.1 h -206.88 l -2.66,58.22 h 212.2 l -2.66,-58.22" /><path
         id="path142"
         style="fill:#342f6a;fill-opacity:1;fill-rule:nonzero;stroke:none"
         d="m 2761.07,1745.78 h 433.391 v 41.2188 H 2761.07 Z" /><path
         id="path144"
         style="fill:#342f6a;fill-opacity:1;fill-rule:nonzero;stroke:none"
         d="m 3136.78,1745.78 h 883.117 v 589.918 H 3136.78 Z" /><path
         id="path146"
         style="fill:#44378d;fill-opacity:1;fill-rule:nonzero;stroke:none"
         d="m 3164.37,1745.78 h 883.117 v 589.918 H 3164.37 Z" /><path
         id="path148"
         style="fill:#3a317a;fill-opacity:1;fill-rule:nonzero;stroke:none"
         d="m 4047.49,1745.78 h -883.12 l 883.12,589.92 v -589.92" /><path
         id="path150"
         style="fill:#f9a718;fill-opacity:1;fill-rule:nonzero;stroke:none"
         d="m 3662.35,2046.71 c 0,-31.16 -25.26,-56.41 -56.42,-56.41 -31.15,0 -56.41,25.25 -56.41,56.41 0,31.16 25.26,56.41 56.41,56.41 31.16,0 56.42,-25.25 56.42,-56.41" /><path
         id="path152"
         style="fill:#f47428;fill-opacity:1;fill-rule:nonzero;stroke:none"
         d="m 3605.93,1990.3 c 31.16,0 56.42,25.25 56.42,56.41 0,9.82 -2.52,19.05 -6.94,27.08 l -93.42,-62.41 c 10.34,-12.84 26.17,-21.08 43.94,-21.08" /><path
         id="path154"
         style="fill:#44378d;fill-opacity:1;fill-rule:nonzero;stroke:none"
         d="M 4047.49,1745.78 H 3164.37 V 1787 h 883.12 v -41.22" /><path
         id="path156"
         style="fill:#342f6a;fill-opacity:1;fill-rule:nonzero;stroke:none"
         d="m 3841.73,1766.39 c 0,-5.25 -4.26,-9.51 -9.5,-9.51 -5.25,0 -9.51,4.26 -9.51,9.51 0,5.25 4.26,9.5 9.51,9.5 5.24,0 9.5,-4.25 9.5,-9.5" /><path
         id="path158"
         style="fill:#342f6a;fill-opacity:1;fill-rule:nonzero;stroke:none"
         d="m 3868.97,1766.39 c 0,-5.25 -4.26,-9.51 -9.51,-9.51 -5.26,0 -9.52,4.26 -9.52,9.51 0,5.25 4.26,9.5 9.52,9.5 5.25,0 9.51,-4.25 9.51,-9.5" /><path
         id="path160"
         style="fill:#19b2af;fill-opacity:1;fill-rule:nonzero;stroke:none"
         d="m 1283.72,1910.72 c 0,2.61 2.13,4.74 4.76,4.74 h 33.73 v -88.52 h -33.73 c -2.63,0 -4.76,2.13 -4.76,4.73 v 79.05 m -25.28,0 v -79.05 c 0,-16.57 13.47,-30.03 30.04,-30.03 h 33.73 v -13.18 c 0,-23.53 19.15,-42.68 42.68,-42.68 H 1504 c 23.51,0 42.68,19.15 42.68,42.68 v 178.63 c 0,6.99 -5.67,12.65 -12.65,12.65 h -199.17 c -7.01,0 -12.65,-5.66 -12.65,-12.65 v -26.33 h -33.73 c -16.57,0 -30.04,-13.49 -30.04,-30.04" /><path
         id="path162"
         style="fill:#12b0b0;fill-opacity:1;fill-rule:nonzero;stroke:none"
         d="m 1504,1745.78 h -55.6 c 23.52,0 42.69,19.15 42.69,42.68 v 178.63 c 0,6.99 -5.68,12.65 -12.65,12.65 h 55.59 c 6.98,0 12.65,-5.66 12.65,-12.65 v -178.63 c 0,-23.53 -19.17,-42.68 -42.68,-42.68" /><path
         id="path164"
         style="fill:#44378d;fill-opacity:1;fill-rule:nonzero;stroke:none"
         d="m 1399.53,1842.57 v 0 c -10.28,0 -18.61,8.33 -18.61,18.62 v 20.02 c 0,10.28 8.33,18.62 18.61,18.62 10.29,0 18.63,-8.34 18.63,-18.62 v -20.02 c 0,-10.29 -8.34,-18.62 -18.63,-18.62" /><path
         id="path166"
         style="fill:#44378d;fill-opacity:1;fill-rule:nonzero;stroke:none"
         d="m 1405.34,1871.2 h -11.61 v 108.54 h 11.61 V 1871.2" /><path
         id="path168"
         style="fill:#44378d;fill-opacity:1;fill-rule:nonzero;stroke:none"
         d="M 1052.41,177.789 H 652.996 V 1355.76 H 1052.41 V 177.789" /><path
         id="path170"
         style="fill:#342f6a;fill-opacity:1;fill-rule:nonzero;stroke:none"
         d="M 968.5,431.559 H 736.91 c -17.699,0 -32.043,14.339 -32.043,32.043 v 807.918 c 0,17.69 14.344,32.04 32.043,32.04 H 968.5 c 17.695,0 32.04,-14.35 32.04,-32.04 V 463.602 c 0,-17.704 -14.345,-32.043 -32.04,-32.043" /><path
         id="path172"
         style="fill:#f9a718;fill-opacity:1;fill-rule:nonzero;stroke:none"
         d="m 959.906,1162.88 c 0,-59.21 -47.996,-107.21 -107.203,-107.21 -59.203,0 -107.203,48 -107.203,107.21 0,59.2 48,107.19 107.203,107.19 59.207,0 107.203,-47.99 107.203,-107.19" /><path
         id="path174"
         style="fill:#f47428;fill-opacity:1;fill-rule:nonzero;stroke:none"
         d="m 889.805,1162.88 c 0,-20.49 -16.614,-37.1 -37.102,-37.1 -20.488,0 -37.094,16.61 -37.094,37.1 0,20.48 16.606,37.1 37.094,37.1 20.488,0 37.102,-16.62 37.102,-37.1" /><path
         id="path176"
         style="fill:#f9a718;fill-opacity:1;fill-rule:nonzero;stroke:none"
         d="m 959.906,881.879 c 0,-59.207 -47.996,-107.211 -107.203,-107.211 -59.203,0 -107.203,48.004 -107.203,107.211 0,59.211 48,107.199 107.203,107.199 59.207,0 107.203,-47.988 107.203,-107.199" /><path
         id="path178"
         style="fill:#f47428;fill-opacity:1;fill-rule:nonzero;stroke:none"
         d="m 889.805,881.879 c 0,-20.488 -16.614,-37.098 -37.102,-37.098 -20.488,0 -37.094,16.61 -37.094,37.098 0,20.492 16.606,37.101 37.094,37.101 20.488,0 37.102,-16.609 37.102,-37.101" /><path
         id="path180"
         style="fill:#f9a718;fill-opacity:1;fill-rule:nonzero;stroke:none"
         d="m 959.906,600.879 c 0,-59.211 -47.996,-107.199 -107.203,-107.199 -59.203,0 -107.203,47.988 -107.203,107.199 0,59.211 48,107.199 107.203,107.199 59.207,0 107.203,-47.988 107.203,-107.199" /><path
         id="path182"
         style="fill:#f47428;fill-opacity:1;fill-rule:nonzero;stroke:none"
         d="m 889.805,600.879 c 0,-20.481 -16.614,-37.098 -37.102,-37.098 -20.488,0 -37.094,16.617 -37.094,37.098 0,20.492 16.606,37.101 37.094,37.101 20.488,0 37.102,-16.609 37.102,-37.101" /><path
         id="path184"
         style="fill:#342f6a;fill-opacity:1;fill-rule:nonzero;stroke:none"
         d="M 1000.54,261.609 H 704.867 v 28.532 h 295.673 v -28.532" /><path
         id="path186"
         style="fill:#342f6a;fill-opacity:1;fill-rule:nonzero;stroke:none"
         d="m 795.645,317.371 h -90.778 v 28.527 h 90.778 v -28.527" /><path
         id="path188"
         style="fill:#44378d;fill-opacity:1;fill-rule:nonzero;stroke:none"
         d="m 4674.25,177.789 h 399.42 V 1355.76 H 4674.25 V 177.789" /><path
         id="path190"
         style="fill:#342f6a;fill-opacity:1;fill-rule:nonzero;stroke:none"
         d="m 4758.17,431.559 h 231.59 c 17.69,0 32.04,14.339 32.04,32.043 v 807.918 c 0,17.69 -14.35,32.04 -32.04,32.04 h -231.59 c -17.7,0 -32.04,-14.35 -32.04,-32.04 V 463.602 c 0,-17.704 14.34,-32.043 32.04,-32.043" /><path
         id="path192"
         style="fill:#f9a718;fill-opacity:1;fill-rule:nonzero;stroke:none"
         d="m 4766.76,1162.88 c 0,-59.21 48,-107.21 107.2,-107.21 59.21,0 107.21,48 107.21,107.21 0,59.2 -48,107.19 -107.21,107.19 -59.2,0 -107.2,-47.99 -107.2,-107.19" /><path
         id="path194"
         style="fill:#f47428;fill-opacity:1;fill-rule:nonzero;stroke:none"
         d="m 4836.87,1162.88 c 0,-20.49 16.6,-37.1 37.09,-37.1 20.49,0 37.1,16.61 37.1,37.1 0,20.48 -16.61,37.1 -37.1,37.1 -20.49,0 -37.09,-16.62 -37.09,-37.1" /><path
         id="path196"
         style="fill:#f9a718;fill-opacity:1;fill-rule:nonzero;stroke:none"
         d="m 4766.76,881.879 c 0,-59.207 48,-107.211 107.2,-107.211 59.21,0 107.21,48.004 107.21,107.211 0,59.211 -48,107.199 -107.21,107.199 -59.2,0 -107.2,-47.988 -107.2,-107.199" /><path
         id="path198"
         style="fill:#f47428;fill-opacity:1;fill-rule:nonzero;stroke:none"
         d="m 4836.87,881.879 c 0,-20.488 16.6,-37.098 37.09,-37.098 20.49,0 37.1,16.61 37.1,37.098 0,20.492 -16.61,37.101 -37.1,37.101 -20.49,0 -37.09,-16.609 -37.09,-37.101" /><path
         id="path200"
         style="fill:#f9a718;fill-opacity:1;fill-rule:nonzero;stroke:none"
         d="m 4766.76,600.879 c 0,-59.211 48,-107.199 107.2,-107.199 59.21,0 107.21,47.988 107.21,107.199 0,59.211 -48,107.199 -107.21,107.199 -59.2,0 -107.2,-47.988 -107.2,-107.199" /><path
         id="path202"
         style="fill:#f47428;fill-opacity:1;fill-rule:nonzero;stroke:none"
         d="m 4836.87,600.879 c 0,-20.481 16.6,-37.098 37.09,-37.098 20.49,0 37.1,16.617 37.1,37.098 0,20.492 -16.61,37.101 -37.1,37.101 -20.49,0 -37.09,-16.609 -37.09,-37.101" /><path
         id="path204"
         style="fill:#342f6a;fill-opacity:1;fill-rule:nonzero;stroke:none"
         d="m 4726.13,261.609 h 295.67 v 28.532 h -295.67 v -28.532" /><path
         id="path206"
         style="fill:#342f6a;fill-opacity:1;fill-rule:nonzero;stroke:none"
         d="m 4931.02,317.371 h 90.78 v 28.527 h -90.78 v -28.527" /><path
         id="path208"
         style="fill:#ffffff;fill-opacity:1;fill-rule:nonzero;stroke:none"
         d="m 2202.96,2590.04 c 0.05,-0.4 2.05,-21.26 14.49,-43.5 12.33,-22.22 35.86,-45.92 77.4,-49.91 6.21,-0.6 12.16,-0.9 17.86,-0.9 32.98,-0.02 57.73,9.9 74.09,25.7 16.39,15.78 24.15,37.17 24.14,59.16 0,6.6 -0.7,13.27 -2.06,19.89 l -9.79,-2.02 c 1.22,-5.97 1.85,-11.97 1.85,-17.87 -0.02,-19.7 -6.85,-38.23 -21.08,-51.96 -14.23,-13.71 -36.1,-22.87 -67.15,-22.9 -5.36,0 -10.99,0.28 -16.89,0.86 -37.99,3.79 -58.17,24.55 -69.65,44.84 -5.68,10.14 -9.02,20.12 -10.92,27.54 -0.95,3.7 -1.54,6.76 -1.89,8.87 -0.18,1.05 -0.29,1.87 -0.36,2.41 l -0.09,0.75 -9.95,-0.96" /><path
         id="path210"
         style="fill:#ffffff;fill-opacity:1;fill-rule:nonzero;stroke:none"
         d="m 1847.36,2240.31 c 0.43,-0.3 53.18,-36.89 165.33,-65.58 l 2.48,9.69 c -55.45,14.18 -96.08,30.29 -122.8,42.8 -13.35,6.26 -23.23,11.62 -29.75,15.4 -3.25,1.89 -5.67,3.38 -7.25,4.39 l -1.77,1.15 -0.53,0.36 -5.71,-8.21" /><path
         id="path212"
         style="fill:#ffffff;fill-opacity:1;fill-rule:nonzero;stroke:none"
         d="m 2779.14,2496.61 -0.04,-0.81 c -0.48,-8.49 -5.96,-82.35 -53.28,-168.14 l 8.75,-4.83 c 51.55,93.51 54.53,172.92 54.56,173.41 l -9.99,0.37" /><path
         id="path214"
         style="fill:#4745a4;fill-opacity:1;fill-rule:nonzero;stroke:none"
         d="m 790.32,2784.57 c 0,0 -117.965,25.17 -61.996,144.27 55.961,119.1 -85.804,46.59 -94.418,-95.48 -8.609,-142.06 116.235,-161.13 116.235,-161.13 l 40.179,112.34" /><path
         id="path216"
         style="fill:#3d3e9e;fill-opacity:1;fill-rule:nonzero;stroke:none"
         d="m 1166.17,2511.67 c 0,0 59.14,-105.12 156.18,-16.23 97.04,88.89 70.03,-68.05 -63.04,-118.57 -133.05,-50.51 -188.43,63 -188.43,63 l 95.29,71.8" /><path
         id="path218"
         style="fill:#4745a4;fill-opacity:1;fill-rule:nonzero;stroke:none"
         d="m 1089.74,1883.86 c 0,0 -220.306,-60.05 -391.65,232.5 -110.863,189.29 -106.598,603.83 234.89,810.97 306.8,186.11 616.89,-211.07 247.8,-469.83 -197.163,-138.22 -357.116,-454.6 -91.04,-573.64" /><path
         id="path220"
         style="fill:#f13ea8;fill-opacity:1;fill-rule:nonzero;stroke:none"
         d="m 958.539,2767.22 c -7.418,-7.4 -27.07,0.29 -43.902,17.17 -16.836,16.88 -24.469,36.55 -17.055,43.95 7.41,7.39 27.07,-0.3 43.902,-17.17 16.829,-16.88 24.465,-36.56 17.055,-43.95" /><path
         id="path222"
         style="fill:#f13ea8;fill-opacity:1;fill-rule:nonzero;stroke:none"
         d="m 1177.66,2547.51 c -7.42,-7.39 -27.07,0.29 -43.9,17.17 -16.84,16.88 -24.47,36.56 -17.06,43.95 7.41,7.39 27.07,-0.3 43.9,-17.18 16.83,-16.87 24.47,-36.55 17.06,-43.94" /><path
         id="path224"
         style="fill:#342f6a;fill-opacity:1;fill-rule:nonzero;stroke:none"
         d="m 1025.06,2860.98 c -4.75,4.66 -4.81,12.29 -0.15,17.03 1.88,1.91 4.25,3.02 6.71,3.42 -1.32,2.68 -3,5.22 -5.25,7.44 -10.79,10.6 -28.12,10.45 -38.722,-0.33 -10.597,-10.78 -10.453,-28.12 0.329,-38.72 10.781,-10.6 28.113,-10.46 38.713,0.33 2.22,2.25 3.85,4.83 5.13,7.53 -2.47,0.34 -4.85,1.42 -6.76,3.3" /><path
         id="path226"
         style="fill:#342f6a;fill-opacity:1;fill-rule:nonzero;stroke:none"
         d="m 1236.95,2652.62 c -4.74,4.66 -4.81,12.29 -0.14,17.03 1.88,1.92 4.24,3.03 6.7,3.42 -1.32,2.68 -2.99,5.23 -5.25,7.44 -10.78,10.6 -28.11,10.46 -38.71,-0.32 -10.61,-10.79 -10.46,-28.12 0.32,-38.73 10.79,-10.6 28.12,-10.45 38.72,0.33 2.21,2.25 3.85,4.83 5.12,7.53 -2.46,0.34 -4.84,1.42 -6.76,3.3" /><path
         id="path228"
         style="fill:#342f6a;fill-opacity:1;fill-rule:nonzero;stroke:none"
         d="m 1051.66,2704.77 c -23.11,22.72 -23.42,60.01 -0.7,83.12 3.82,3.88 10.05,3.94 13.94,0.12 3.88,-3.82 3.93,-10.06 0.12,-13.94 -15.11,-15.36 -14.9,-40.14 0.46,-55.25 15.36,-15.1 40.15,-14.89 55.25,0.47 3.82,3.88 10.06,3.93 13.94,0.11 3.88,-3.81 3.94,-10.05 0.12,-13.94 -22.73,-23.11 -60.02,-23.42 -83.13,-0.69" /><path
         id="path230"
         style="fill:#3d3e9e;fill-opacity:1;fill-rule:nonzero;stroke:none"
         d="m 1180.78,2457.5 c 23.73,16.65 44.62,33.87 62.92,51.46 -68.6,-49.57 -220.64,-94.91 -312.43,-182.18 -0.008,0 -128.493,-102.81 -93.778,-260.76 0,0 3.61,30.62 21.656,66.14 32.043,-243.16 230.592,-248.3 230.592,-248.3 -266.076,119.04 -106.123,435.43 91.04,573.64" /><path
         id="path232"
         style="fill:#ee1b88;fill-opacity:1;fill-rule:nonzero;stroke:none"
         d="m 1633.51,3385.59 c 0,0 74.04,15.8 38.91,90.56 -35.13,74.75 53.86,29.24 59.26,-59.93 5.41,-89.17 -72.95,-101.14 -72.95,-101.14 l -25.22,70.51" /><path
         id="path234"
         style="fill:#ed117a;fill-opacity:1;fill-rule:nonzero;stroke:none"
         d="m 1397.6,3214.3 c 0,0 -37.12,-65.98 -98.03,-10.18 -60.9,55.79 -43.95,-42.71 39.57,-74.42 83.51,-31.71 118.28,39.54 118.28,39.54 l -59.82,45.06" /><path
         id="path236"
         style="fill:#ee1b88;fill-opacity:1;fill-rule:nonzero;stroke:none"
         d="m 1445.57,2820.26 c 0,0 138.29,-37.7 245.83,145.93 69.58,118.81 66.9,378.99 -147.43,509.01 -192.57,116.82 -387.2,-132.48 -155.53,-294.89 123.75,-86.76 224.14,-285.33 57.13,-360.05" /><path
         id="path238"
         style="fill:#f13ea8;fill-opacity:1;fill-rule:nonzero;stroke:none"
         d="m 1435.06,3286.29 c 4.53,-4.82 -0.69,-17.08 -11.66,-27.39 -10.97,-10.31 -23.53,-14.76 -28.05,-9.94 -4.53,4.82 0.69,17.08 11.66,27.39 10.96,10.31 23.53,14.76 28.05,9.94" /><path
         id="path240"
         style="fill:#f13ea8;fill-opacity:1;fill-rule:nonzero;stroke:none"
         d="m 1577.84,3420.48 c 4.53,-4.82 -0.69,-17.08 -11.66,-27.39 -10.97,-10.31 -23.53,-14.76 -28.06,-9.94 -4.53,4.82 0.69,17.08 11.66,27.39 10.97,10.3 23.53,14.75 28.06,9.94" /><path
         id="path242"
         style="fill:#ed117a;fill-opacity:1;fill-rule:nonzero;stroke:none"
         d="m 1388.44,3180.31 c -14.91,10.44 -28.01,21.25 -39.5,32.3 43.06,-31.12 138.49,-59.58 196.1,-114.35 0.01,0 80.65,-64.53 58.86,-163.67 0,0 -2.27,19.22 -13.59,41.51 -20.11,-152.62 -144.74,-155.84 -144.74,-155.84 167.01,74.72 66.62,273.29 -57.13,360.05" /><path
         id="path244"
         style="fill:#342f6a;fill-opacity:1;fill-rule:nonzero;stroke:none"
         d="m 1482.03,3381.94 -56.6,-53.75 c -1.7,-1.61 -4.38,-1.55 -5.99,0.15 -1.61,1.7 -1.54,4.38 0.15,6 l 56.6,53.75 c 1.7,1.61 4.38,1.54 6,-0.16 1.61,-1.7 1.54,-4.38 -0.16,-5.99" /><path
         id="path246"
         style="fill:#342f6a;fill-opacity:1;fill-rule:nonzero;stroke:none"
         d="m 1349.88,3307.81 c 0.07,-4.27 1.63,-8.54 4.8,-11.88 6.71,-7.07 17.89,-7.36 24.97,-0.64 6.89,6.55 7.28,17.3 1.08,24.39 l -30.85,-11.87" /><path
         id="path248"
         style="fill:#342f6a;fill-opacity:1;fill-rule:nonzero;stroke:none"
         d="m 1507.64,3457.62 c 4.26,-0.29 8.44,-2.07 11.61,-5.41 6.72,-7.07 6.43,-18.25 -0.64,-24.96 -6.9,-6.55 -17.66,-6.39 -24.42,0.17 l 13.45,30.2" /><path
         id="path250"
         style="fill:#342f6a;fill-opacity:1;fill-rule:nonzero;stroke:none"
         d="m 1434.59,3338 27.49,-10.58 -8.91,28.23 z" /><path
         id="path252"
         style="fill:#342f6a;fill-opacity:1;fill-rule:nonzero;stroke:none"
         d="m 1453.17,3355.65 27.5,-10.58 -8.91,28.23 z" /><path
         id="path254"
         style="fill:#19b2af;fill-opacity:1;fill-rule:nonzero;stroke:none"
         d="m 4720.99,2987.1 h 7.85 c 44.37,0 80.33,35.97 80.33,80.34 v 7.84 h -7.84 c -44.36,0 -80.34,-35.97 -80.34,-80.34 v -7.84" /><path
         id="path256"
         style="fill:#13af9f;fill-opacity:1;fill-rule:nonzero;stroke:none"
         d="m 4720.99,2987.1 88.18,88.18 c 0,-48.7 -39.47,-88.18 -88.18,-88.18" /><path
         id="path258"
         style="fill:#44378d;fill-opacity:1;fill-rule:nonzero;stroke:none"
         d="m 4716,2959.63 h 10 v 257.129 h -10 z" /><path
         id="path260"
         style="fill:#f9a718;fill-opacity:1;fill-rule:nonzero;stroke:none"
         d="m 4721,3216.76 -20.75,116.71 c -2.03,11.46 5.6,22.4 17.06,24.44 11.46,2.04 22.4,-5.6 24.44,-17.06 0.44,-2.49 0.4,-5.03 0,-7.38 L 4721,3216.76" /><path
         id="path262"
         style="fill:#f9a718;fill-opacity:1;fill-rule:nonzero;stroke:none"
         d="m 4721,3216.76 20.75,-116.71 c 2.03,-11.46 -5.6,-22.4 -17.06,-24.44 -11.46,-2.04 -22.4,5.6 -24.44,17.06 -0.44,2.49 -0.4,5.02 0,7.38 l 20.75,116.71" /><path
         id="path264"
         style="fill:#f9a718;fill-opacity:1;fill-rule:nonzero;stroke:none"
         d="m 4721,3216.76 -116.71,-20.75 c -11.46,-2.04 -22.4,5.6 -24.44,17.06 -2.03,11.46 5.6,22.4 17.06,24.44 2.49,0.44 5.03,0.4 7.38,0 L 4721,3216.76" /><path
         id="path266"
         style="fill:#f9a718;fill-opacity:1;fill-rule:nonzero;stroke:none"
         d="m 4721,3216.76 116.71,20.75 c 11.46,2.04 22.4,-5.6 24.44,-17.06 2.03,-11.46 -5.6,-22.4 -17.06,-24.44 -2.49,-0.44 -5.03,-0.41 -7.38,0 L 4721,3216.76" /><path
         id="path268"
         style="fill:#f9a718;fill-opacity:1;fill-rule:nonzero;stroke:none"
         d="m 4721,3216.76 -76.33,90.7 c -7.49,8.91 -6.35,22.2 2.56,29.69 8.91,7.5 22.2,6.35 29.7,-2.55 1.62,-1.94 2.86,-4.15 3.68,-6.39 L 4721,3216.76" /><path
         id="path270"
         style="fill:#f9a718;fill-opacity:1;fill-rule:nonzero;stroke:none"
         d="m 4721,3216.76 76.33,-90.7 c 7.49,-8.91 6.35,-22.2 -2.56,-29.7 -8.91,-7.49 -22.2,-6.35 -29.7,2.56 -1.62,1.93 -2.86,4.15 -3.68,6.39 L 4721,3216.76" /><path
         id="path272"
         style="fill:#f9a718;fill-opacity:1;fill-rule:nonzero;stroke:none"
         d="m 4721,3216.76 -90.7,-76.33 c -8.91,-7.49 -22.2,-6.35 -29.69,2.56 -7.5,8.9 -6.36,22.2 2.55,29.69 1.93,1.62 4.15,2.87 6.39,3.69 l 111.45,40.39" /><path
         id="path274"
         style="fill:#f9a718;fill-opacity:1;fill-rule:nonzero;stroke:none"
         d="m 4721,3216.76 90.7,76.33 c 8.91,7.48 22.2,6.34 29.69,-2.56 7.5,-8.91 6.36,-22.2 -2.55,-29.69 -1.93,-1.63 -4.15,-2.87 -6.4,-3.7 L 4721,3216.76" /><path
         id="path276"
         style="fill:#f9a718;fill-opacity:1;fill-rule:nonzero;stroke:none"
         d="m 4721,3216.76 -111.45,40.38 c -10.94,3.97 -16.6,16.06 -12.63,27 3.96,10.94 16.04,16.6 26.99,12.63 2.37,-0.86 4.56,-2.16 6.39,-3.68 l 90.7,-76.33" /><path
         id="path278"
         style="fill:#f9a718;fill-opacity:1;fill-rule:nonzero;stroke:none"
         d="m 4721,3216.76 111.44,-40.39 c 10.95,-3.96 16.61,-16.05 12.64,-26.99 -3.96,-10.94 -16.04,-16.6 -26.99,-12.64 -2.37,0.87 -4.56,2.17 -6.39,3.69 l -90.7,76.33" /><path
         id="path280"
         style="fill:#f9a718;fill-opacity:1;fill-rule:nonzero;stroke:none"
         d="m 4721,3216.76 -40.39,-111.45 c -3.97,-10.95 -16.05,-16.6 -26.99,-12.63 -10.94,3.96 -16.6,16.05 -12.63,26.99 0.86,2.37 2.16,4.56 3.68,6.39 l 76.33,90.7" /><path
         id="path282"
         style="fill:#f9a718;fill-opacity:1;fill-rule:nonzero;stroke:none"
         d="m 4721,3216.76 40.39,111.45 c 3.96,10.94 16.04,16.6 26.99,12.63 10.94,-3.96 16.59,-16.05 12.63,-26.99 -0.86,-2.38 -2.16,-4.56 -3.68,-6.39 l -76.33,-90.7" /><path
         id="path284"
         style="fill:#f9a718;fill-opacity:1;fill-rule:nonzero;stroke:none"
         d="m 3990.33,2579.74 h -304.9 c -20.71,0 -37.5,16.79 -37.5,37.5 v 304.89 c 0,20.71 16.79,37.5 37.5,37.5 h 304.9 c 20.71,0 37.5,-16.79 37.5,-37.5 v -304.89 c 0,-20.71 -16.79,-37.5 -37.5,-37.5" /><path
         id="path286"
         style="fill:#f47428;fill-opacity:1;fill-rule:nonzero;stroke:none"
         d="m 3960.93,2609.14 h -246.1 c -20.72,0 -37.5,16.78 -37.5,37.49 v 246.1 c 0,20.72 16.78,37.5 37.5,37.5 h 246.1 c 20.71,0 37.5,-16.78 37.5,-37.5 v -246.1 c 0,-20.71 -16.79,-37.49 -37.5,-37.49" /><g
         transform="scale(10)"
         id="g288"><text
           id="text292"
           style="font-variant:normal;font-weight:normal;font-size:22.19879913px;font-family:MyriadConceptRoman;-inkscape-font-specification:MyriadConceptRoman-Regular;writing-mode:lr-tb;fill:#ffffff;fill-opacity:1;fill-rule:nonzero;stroke:none"
           transform="matrix(1,0,0,-1,378.34,268.618)"><tspan
             id="tspan290"
             y="0"
             x="0"></tspan></text>
</g><path
         id="path294"
         style="fill:#44378d;fill-opacity:1;fill-rule:nonzero;stroke:none"
         d="M 4431.89,2579.74 H 4127 c -20.72,0 -37.5,16.79 -37.5,37.5 v 304.89 c 0,20.71 16.78,37.5 37.5,37.5 h 304.89 c 20.7,0 37.49,-16.79 37.49,-37.5 v -304.89 c 0,-20.71 -16.79,-37.5 -37.49,-37.5" /><path
         id="path296"
         style="fill:#4a41a1;fill-opacity:1;fill-rule:nonzero;stroke:none"
         d="m 4402.49,2609.14 h -246.1 c -20.71,0 -37.5,16.78 -37.5,37.49 v 246.1 c 0,20.72 16.79,37.5 37.5,37.5 h 246.1 c 20.71,0 37.49,-16.78 37.49,-37.5 v -246.1 c 0,-20.71 -16.78,-37.49 -37.49,-37.49" /><path
         id="path298"
         style="fill:#44378d;fill-opacity:1;fill-rule:nonzero;stroke:none"
         d="m 4873.45,2579.74 h -304.9 c -20.7,0 -37.49,16.79 -37.49,37.5 v 304.89 c 0,20.71 16.79,37.5 37.49,37.5 h 304.9 c 20.7,0 37.49,-16.79 37.49,-37.5 v -304.89 c 0,-20.71 -16.79,-37.5 -37.49,-37.5" /><path
         id="path300"
         style="fill:#4a41a1;fill-opacity:1;fill-rule:nonzero;stroke:none"
         d="m 4844.06,2609.14 h -246.12 c -20.7,0 -37.49,16.78 -37.49,37.49 v 246.1 c 0,20.72 16.79,37.5 37.49,37.5 h 246.12 c 20.7,0 37.49,-16.78 37.49,-37.5 v -246.1 c 0,-20.71 -16.79,-37.49 -37.49,-37.49" /><path
         id="path302"
         style="fill:#f9a718;fill-opacity:1;fill-rule:nonzero;stroke:none"
         d="m 4439.98,3360.29 c 0,-88.67 -71.87,-160.55 -160.54,-160.55 -88.67,0 -160.55,71.88 -160.55,160.55 0,88.67 71.88,160.55 160.55,160.55 88.67,0 160.54,-71.88 160.54,-160.55" /><path
         id="path304"
         style="fill:#f47428;fill-opacity:1;fill-rule:nonzero;stroke:none"
         d="m 4406.13,3360.29 c 0,-69.97 -56.72,-126.69 -126.69,-126.69 -69.97,0 -126.69,56.72 -126.69,126.69 0,69.97 56.72,126.69 126.69,126.69 69.97,0 126.69,-56.72 126.69,-126.69" /><g
         transform="scale(10)"
         id="g306"><text
           id="text310"
           style="font-variant:normal;font-weight:bold;font-size:18.60759926px;font-family:Poppins;-inkscape-font-specification:Poppins-Bold;writing-mode:lr-tb;fill:#fcd041;fill-opacity:1;fill-rule:nonzero;stroke:none"
           transform="matrix(1,0,0,-1,422.049,329.389)"><tspan
             id="tspan308"
             y="0"
             x="0">$</tspan></text>
</g><path
         id="path312"
         style="fill:#fcd041;fill-opacity:1;fill-rule:nonzero;stroke:none"
         d="m 4279.44,3243.33 c -64.59,0 -116.96,52.36 -116.96,116.96 0,64.59 52.37,116.96 116.96,116.96 64.6,0 116.96,-52.37 116.96,-116.96 0,-64.6 -52.36,-116.96 -116.96,-116.96 z m 0,243.65 c -69.97,0 -126.69,-56.72 -126.69,-126.69 0,-69.97 56.72,-126.69 126.69,-126.69 69.97,0 126.69,56.72 126.69,126.69 0,69.97 -56.72,126.69 -126.69,126.69" /><path
         id="path314"
         style="fill:#f9a718;fill-opacity:1;fill-rule:nonzero;stroke:none"
         d="m 4118.89,3273.82 c 4.14,-22.62 6.3,-45.25 7.77,-67.87 1.6,-22.62 2.02,-45.24 2.22,-67.86 -0.18,-22.63 -0.6,-45.25 -2.19,-67.87 -1.46,-22.62 -3.64,-45.24 -7.8,-67.87 -4.16,22.63 -6.34,45.25 -7.8,67.87 -1.59,22.62 -2.02,45.24 -2.2,67.87 0.21,22.62 0.63,45.24 2.23,67.86 1.46,22.62 3.63,45.25 7.77,67.87" /><path
         id="path316"
         style="fill:#f9a718;fill-opacity:1;fill-rule:nonzero;stroke:none"
         d="m 4279.44,3170.07 c 4.14,-13.97 6.31,-27.95 7.77,-41.93 1.47,-13.97 2.24,-27.95 2.23,-41.92 0.05,-13.98 -0.75,-27.96 -2.2,-41.94 -1.47,-13.97 -3.64,-27.95 -7.8,-41.93 -4.16,13.98 -6.34,27.96 -7.81,41.93 -1.44,13.98 -2.24,27.96 -2.19,41.94 -0.01,13.97 0.76,27.95 2.22,41.92 1.48,13.98 3.64,27.96 7.78,41.93" /><path
         id="path318"
         style="fill:#f9a718;fill-opacity:1;fill-rule:nonzero;stroke:none"
         d="m 4439.98,3273.82 c 4.14,-22.62 6.31,-45.25 7.78,-67.87 1.6,-22.62 2.02,-45.24 2.22,-67.86 -0.17,-22.63 -0.6,-45.25 -2.19,-67.87 -1.47,-22.62 -3.64,-45.24 -7.81,-67.87 -4.16,22.63 -6.33,45.25 -7.8,67.87 -1.58,22.62 -2.01,45.24 -2.19,67.87 0.2,22.62 0.63,45.24 2.22,67.86 1.47,22.62 3.64,45.25 7.77,67.87" /><path
         id="path320"
         style="fill:#ee1b88;fill-opacity:1;fill-rule:nonzero;stroke:none"
         d="m 4767.69,3216.76 c 0,-25.78 -20.91,-46.69 -46.69,-46.69 -25.78,0 -46.69,20.91 -46.69,46.69 0,25.78 20.91,46.68 46.69,46.68 25.78,0 46.69,-20.9 46.69,-46.68" /><path
         id="path322"
         style="fill:#19b2af;fill-opacity:1;fill-rule:nonzero;stroke:none"
         d="m 4721.01,2987.1 h -7.85 c -44.37,0 -80.33,35.97 -80.33,80.34 v 7.84 h 7.84 c 44.36,0 80.34,-35.97 80.34,-80.34 v -7.84" /><path
         id="path324"
         style="fill:#13af9f;fill-opacity:1;fill-rule:nonzero;stroke:none"
         d="m 4721.01,2987.1 -88.18,88.18 c 0,-48.7 39.47,-88.18 88.18,-88.18" /><path
         id="path326"
         style="fill:#342f6a;fill-opacity:1;fill-rule:nonzero;stroke:none"
         d="m 3320.97,2716.73 -55.86,175.95 c -4.76,14.97 -18.66,25.15 -34.37,25.15 h -303.69 c -15.71,0 -29.62,-10.18 -34.37,-25.15 l -55.87,-175.95 c -9.72,-30.63 12.69,-63.51 44.81,-62.8 15.64,0.35 30.08,8.52 38.43,21.79 l 38.84,61.75 h 240.01 l 37.76,-60.05 c 8.07,-12.83 21.39,-22.02 36.48,-23.32 33.73,-2.92 57.86,31.05 47.83,62.63" /><path
         id="path328"
         style="fill:#44378d;fill-opacity:1;fill-rule:nonzero;stroke:none"
         d="m 3168.01,2836.52 c 0,-26.47 21.46,-47.93 47.93,-47.93 26.48,0 47.93,21.46 47.93,47.93 0,26.47 -21.45,47.93 -47.93,47.93 -26.47,0 -47.93,-21.46 -47.93,-47.93" /><path
         id="path330"
         style="fill:#44378d;fill-opacity:1;fill-rule:nonzero;stroke:none"
         d="m 2989.78,2836.52 c 0,-26.47 -21.46,-47.93 -47.93,-47.93 -26.48,0 -47.93,21.46 -47.93,47.93 0,26.47 21.45,47.93 47.93,47.93 26.47,0 47.93,-21.46 47.93,-47.93" /><path
         id="path332"
         style="fill:#19b2af;fill-opacity:1;fill-rule:nonzero;stroke:none"
         d="m 2975.98,2827.81 h -25.57 v -25.35 h -17.27 v 25.35 h -25.42 v 17.28 h 25.42 v 25.49 h 17.27 v -25.49 h 25.57 v -17.28" /><path
         id="path334"
         style="fill:#ee1b88;fill-opacity:1;fill-rule:nonzero;stroke:none"
         d="m 3215.94,2870.28 c 6.44,0 11.65,-5.22 11.65,-11.65 0,-6.43 -5.21,-11.65 -11.65,-11.65 -6.43,0 -11.65,5.22 -11.65,11.65 0,6.43 5.22,11.65 11.65,11.65" /><path
         id="path336"
         style="fill:#f9a718;fill-opacity:1;fill-rule:nonzero;stroke:none"
         d="m 3193.83,2824.87 c -6.42,0 -11.65,5.22 -11.65,11.65 0,6.44 5.23,11.66 11.65,11.66 6.44,0 11.66,-5.22 11.66,-11.66 0,-6.43 -5.22,-11.65 -11.66,-11.65" /><path
         id="path338"
         style="fill:#4745a4;fill-opacity:1;fill-rule:nonzero;stroke:none"
         d="m 3215.94,2802.77 c -6.43,0 -11.65,5.21 -11.65,11.65 0,6.43 5.22,11.65 11.65,11.65 6.44,0 11.65,-5.22 11.65,-11.65 0,-6.44 -5.21,-11.65 -11.65,-11.65" /><path
         id="path340"
         style="fill:#19b2af;fill-opacity:1;fill-rule:nonzero;stroke:none"
         d="m 3238.04,2824.87 c -6.43,0 -11.65,5.22 -11.65,11.65 0,6.44 5.22,11.66 11.65,11.66 6.44,0 11.66,-5.22 11.66,-11.66 0,-6.43 -5.22,-11.65 -11.66,-11.65" /><path
         id="path342"
         style="fill:#44378d;fill-opacity:1;fill-rule:nonzero;stroke:none"
         d="m 3198.9,2737.47 c -13.97,22.2 -38.36,35.68 -64.6,35.68 h -55.41 -55.4 c -26.24,0 -50.64,-13.48 -64.6,-35.68 h 120 120.01" /><path
         id="path344"
         style="fill:#ee1b88;fill-opacity:1;fill-rule:nonzero;stroke:none"
         d="m 3061.15,2832.44 h -25.57 v 8.17 h 25.57 v -8.17" /><path
         id="path346"
         style="fill:#ee1b88;fill-opacity:1;fill-rule:nonzero;stroke:none"
         d="m 3122.21,2832.44 h -25.57 v 8.17 h 25.57 v -8.17" /><path
         id="path348"
         style="fill:#44378d;fill-opacity:1;fill-rule:nonzero;stroke:none"
         d="m 2979.4,2931.05 h -39.12 c -7.31,0 -13.23,-5.92 -13.23,-13.22 h 65.57 c 0,7.3 -5.92,13.22 -13.22,13.22" /><path
         id="path350"
         style="fill:#44378d;fill-opacity:1;fill-rule:nonzero;stroke:none"
         d="m 3217.51,2931.05 h -39.12 c -7.3,0 -13.22,-5.92 -13.22,-13.22 h 65.57 c 0,7.3 -5.92,13.22 -13.23,13.22" /><path
         id="path352"
         style="fill:#f6839b;fill-opacity:1;fill-rule:nonzero;stroke:none"
         d="m 3009.1,2770.89 c -6.1,1.8 -20.33,-6.31 -25.84,-9.49 -2.02,-1.16 0.59,-11.41 4.69,-23.93 h 40.24 c -2.76,6.51 -13.79,31.85 -19.09,33.42" /><path
         id="path354"
         style="fill:#ee1b88;fill-opacity:1;fill-rule:nonzero;stroke:none"
         d="m 3743.68,660.578 67.55,55.453 c 0,0 -149.52,8.969 -247.32,-94.011 -39.9,-42.04 -56.25,-78.829 -59.05,-108.961 l -0.01,-0.008 C 3455.61,425.719 3484.22,393.16 3494,393.949 c 13.06,1.059 15.92,39.61 15.92,39.61 8.62,-36.469 23.42,-74.36 37.72,-59.598 11.67,12.059 5.3,61.949 5.3,61.949 10.8,-23.719 16.63,-64.012 32.3,-60.199 15.66,3.809 9.33,54.289 9.33,54.289 0,0 18.71,-49.121 32.37,-28.281 9.61,14.691 2.29,42.289 -4.41,60.652 10.02,-14.723 21.5,-23.172 28.04,-15.84 30.28,33.887 -28.3,63.219 -28.3,63.219 0.95,8 0.89,14.809 0.35,19.531 -10.9,94.27 121.06,131.297 121.06,131.297" /><path
         id="path356"
         style="fill:#ed117a;fill-opacity:1;fill-rule:nonzero;stroke:none"
         d="m 3602.47,573.711 c -17.29,-65.711 13.83,-124.5 -19.89,-120.18 -33.71,4.328 -55.32,29.809 -72.62,-0.222 -17.26,-29.989 -27.63,-42.84 -32.82,-17.981 -2.21,-29.68 10.85,-41.867 16.86,-41.379 13.06,1.059 15.92,39.61 15.92,39.61 8.62,-36.469 23.42,-74.36 37.72,-59.598 11.67,12.059 5.3,61.949 5.3,61.949 10.8,-23.719 16.63,-64.012 32.3,-60.199 15.66,3.809 9.33,54.289 9.33,54.289 0,0 18.71,-49.121 32.37,-28.281 9.61,14.691 2.29,42.289 -4.41,60.652 10.02,-14.723 21.5,-23.172 28.04,-15.84 30.28,33.887 -28.3,63.219 -28.3,63.219 0.95,8 0.89,14.809 0.35,19.531 -10.9,94.27 121.06,131.297 121.06,131.297 l 5.15,4.223 c -15.37,9.48 -35.7,18.699 -35.7,18.699 0,0 -93.37,-44.09 -110.66,-109.789" /><path
         id="path358"
         style="fill:#ee1b88;fill-opacity:1;fill-rule:nonzero;stroke:none"
         d="m 3743.96,1055.67 c 0,0 -46.85,-86.381 24.19,-176.58 l 133.79,59.371 c 0,0 -44.57,66.509 -157.98,117.209" /><path
         id="path360"
         style="fill:#ed117a;fill-opacity:1;fill-rule:nonzero;stroke:none"
         d="m 3768.63,992.309 c 0,0 -27.95,-51.528 14.43,-105.36 l 79.82,35.43 c 0,0 -26.59,39.68 -94.25,69.93" /><path
         id="path362"
         style="fill:#ee1b88;fill-opacity:1;fill-rule:nonzero;stroke:none"
         d="m 4187.6,1055.67 c -113.41,-50.7 -157.98,-117.209 -157.98,-117.209 l 133.79,-59.371 c 71.04,90.199 24.19,176.58 24.19,176.58" /><path
         id="path364"
         style="fill:#ed117a;fill-opacity:1;fill-rule:nonzero;stroke:none"
         d="m 4162.93,992.309 c 0,0 27.95,-51.528 -14.43,-105.36 l -79.82,35.43 c 0,0 26.59,39.68 94.25,69.93" /><path
         id="path366"
         style="fill:#ee1b88;fill-opacity:1;fill-rule:nonzero;stroke:none"
         d="m 4244.24,178.77 h -556.92 v 545.769 c 0,140.102 113.58,253.691 253.69,253.691 h 49.54 c 140.11,0 253.69,-113.589 253.69,-253.691 V 178.77" /><path
         id="path368"
         style="fill:#ee1b88;fill-opacity:1;fill-rule:nonzero;stroke:none"
         d="m 4187.87,660.578 -67.54,55.453 c 0,0 149.52,8.969 247.32,-94.011 39.9,-42.04 56.25,-78.829 59.05,-108.961 l 0.01,-0.008 c 49.24,-87.332 20.63,-119.891 10.85,-119.102 -13.06,1.059 -15.92,39.61 -15.92,39.61 -8.62,-36.469 -23.42,-74.36 -37.72,-59.598 -11.67,12.059 -5.3,61.949 -5.3,61.949 -10.8,-23.719 -16.63,-64.012 -32.3,-60.199 -15.66,3.809 -9.33,54.289 -9.33,54.289 0,0 -18.72,-49.121 -32.37,-28.281 -9.61,14.691 -2.29,42.289 4.41,60.652 -10.02,-14.723 -21.5,-23.172 -28.04,-15.84 -30.28,33.887 28.3,63.219 28.3,63.219 -0.95,8 -0.89,14.809 -0.35,19.531 10.9,94.27 -121.07,131.297 -121.07,131.297" /><path
         id="path370"
         style="fill:#ed117a;fill-opacity:1;fill-rule:nonzero;stroke:none"
         d="m 4329.09,573.711 c 17.29,-65.711 -13.83,-124.5 19.89,-120.18 33.71,4.328 55.32,29.809 72.62,-0.222 17.26,-29.989 27.63,-42.84 32.82,-17.981 2.2,-29.68 -10.85,-41.867 -16.86,-41.379 -13.06,1.059 -15.92,39.61 -15.92,39.61 -8.62,-36.469 -23.42,-74.36 -37.72,-59.598 -11.67,12.059 -5.3,61.949 -5.3,61.949 -10.8,-23.719 -16.63,-64.012 -32.3,-60.199 -15.66,3.809 -9.33,54.289 -9.33,54.289 0,0 -18.72,-49.121 -32.37,-28.281 -9.61,14.691 -2.29,42.289 4.41,60.652 -10.02,-14.723 -21.5,-23.172 -28.04,-15.84 -30.28,33.887 28.3,63.219 28.3,63.219 -0.95,8 -0.89,14.809 -0.35,19.531 10.9,94.27 -121.07,131.297 -121.07,131.297 l -5.14,4.223 c 15.37,9.48 35.7,18.699 35.7,18.699 0,0 93.37,-44.09 110.66,-109.789" /><path
         id="path372"
         style="fill:#ed117a;fill-opacity:1;fill-rule:nonzero;stroke:none"
         d="m 4219.26,178.77 h 24.98 v 521 c 0,126.718 -84.68,233.589 -200.51,267.308 40.48,-13.867 152.98,-77.637 128.25,-355.34 C 4141.94,274.57 3687.32,252.801 3687.32,252.801 V 178.77 h 531.94" /><path
         id="path374"
         style="fill:#f13ea8;fill-opacity:1;fill-rule:nonzero;stroke:none"
         d="m 3831.96,637.98 c 0,-12.519 -23.1,-22.652 -51.59,-22.652 -28.47,0 -51.57,10.133 -51.57,22.652 0,12.508 23.1,22.661 51.57,22.661 28.49,0 51.59,-10.153 51.59,-22.661" /><path
         id="path376"
         style="fill:#f13ea8;fill-opacity:1;fill-rule:nonzero;stroke:none"
         d="m 4202.76,637.98 c 0,-12.519 -23.1,-22.652 -51.58,-22.652 -28.48,0 -51.58,10.133 -51.58,22.652 0,12.508 23.1,22.661 51.58,22.661 28.48,0 51.58,-10.153 51.58,-22.661" /><path
         id="path378"
         style="fill:#f8a389;fill-opacity:1;fill-rule:nonzero;stroke:none"
         d="m 4124.27,178.77 v 251.109 c 0,87.531 -70.96,158.48 -158.49,158.48 h -0.01 c -87.52,0 -158.48,-70.949 -158.48,-158.48 V 178.77 h 316.98" /><path
         id="path380"
         style="fill:#f68a6e;fill-opacity:1;fill-rule:nonzero;stroke:none"
         d="M 4121.16,461.078 C 4046.63,346.289 3907.88,294.391 3807.29,271.18 v -92.41 h 316.98 v 251.109 c 0,10.68 -1.09,21.109 -3.11,31.199" /><path
         id="path382"
         style="fill:#342f6a;fill-opacity:1;fill-rule:nonzero;stroke:none"
         d="m 3848.72,748.621 c -5.99,0 -10.85,4.859 -10.85,10.848 0,2.422 0.81,4.633 2.15,6.422 -2.54,0.89 -5.22,1.468 -8.06,1.468 -13.63,0 -24.67,-11.039 -24.67,-24.66 0,-13.621 11.04,-24.66 24.67,-24.66 13.61,0 24.65,11.039 24.65,24.66 0,2.84 -0.57,5.531 -1.46,8.071 -1.81,-1.329 -4.01,-2.149 -6.43,-2.149" /><path
         id="path384"
         style="fill:#342f6a;fill-opacity:1;fill-rule:nonzero;stroke:none"
         d="m 4116.37,748.621 c -5.99,0 -10.85,4.859 -10.85,10.848 0,2.422 0.82,4.633 2.16,6.422 -2.54,0.89 -5.24,1.468 -8.08,1.468 -13.61,0 -24.66,-11.039 -24.66,-24.66 0,-13.621 11.05,-24.66 24.66,-24.66 13.63,0 24.67,11.039 24.67,24.66 0,2.84 -0.59,5.531 -1.46,8.071 -1.81,-1.329 -4.02,-2.149 -6.44,-2.149" /><path
         id="path386"
         style="fill:#342f6a;fill-opacity:1;fill-rule:nonzero;stroke:none"
         d="m 3964.45,665.09 c -29.19,0 -52.94,23.762 -52.94,52.949 0,4.902 3.97,8.879 8.87,8.879 4.91,0 8.88,-3.977 8.88,-8.879 0,-19.398 15.78,-35.18 35.19,-35.18 19.4,0 35.19,15.782 35.19,35.18 0,4.902 3.98,8.879 8.88,8.879 4.9,0 8.88,-3.977 8.88,-8.879 0,-29.187 -23.75,-52.949 -52.95,-52.949" /><path
         id="path388"
         style="fill:#f9a718;fill-opacity:1;fill-rule:nonzero;stroke:none"
         d="m 3965.78,827.988 37.75,147.621 c -12.35,1.68 -24.94,2.621 -37.75,2.621 h -0.01 c -12.8,0 -25.39,-0.941 -37.74,-2.621 l 37.75,-147.621" /><path
         id="path390"
         style="fill:#f9a718;fill-opacity:1;fill-rule:nonzero;stroke:none"
         d="m 4209.81,2223.6 c 0,0 -46.84,-86.37 24.2,-176.57 l 133.78,59.37 c 0,0 -44.57,66.5 -157.98,117.2" /><path
         id="path392"
         style="fill:#f47428;fill-opacity:1;fill-rule:nonzero;stroke:none"
         d="m 4234.48,2160.24 c 0,0 -27.95,-51.53 14.43,-105.35 l 79.82,35.42 c 0,0 -26.59,39.68 -94.25,69.93" /><path
         id="path394"
         style="fill:#f9a718;fill-opacity:1;fill-rule:nonzero;stroke:none"
         d="m 4653.46,2223.6 c -113.41,-50.7 -157.98,-117.2 -157.98,-117.2 l 133.78,-59.37 c 71.04,90.2 24.2,176.57 24.2,176.57" /><path
         id="path396"
         style="fill:#f47428;fill-opacity:1;fill-rule:nonzero;stroke:none"
         d="m 4628.79,2160.24 c 0,0 27.95,-51.53 -14.43,-105.35 l -79.83,35.42 c 0,0 26.6,39.68 94.26,69.93" /><path
         id="path398"
         style="fill:#f9a718;fill-opacity:1;fill-rule:nonzero;stroke:none"
         d="m 4710.09,1745.78 h -556.91 v 146.7 c 0,140.1 113.57,253.68 253.68,253.68 h 49.55 c 140.11,0 253.68,-113.58 253.68,-253.68 v -146.7" /><path
         id="path400"
         style="fill:#342f6a;fill-opacity:1;fill-rule:nonzero;stroke:none"
         d="m 4314.57,1916.55 c -5.98,0 -10.85,4.86 -10.85,10.85 0,2.42 0.82,4.63 2.15,6.43 -2.54,0.88 -5.22,1.46 -8.06,1.46 -13.63,0 -24.66,-11.04 -24.66,-24.66 0,-13.61 11.03,-24.66 24.66,-24.66 13.62,0 24.65,11.05 24.65,24.66 0,2.84 -0.57,5.53 -1.46,8.08 -1.8,-1.34 -4,-2.16 -6.43,-2.16" /><path
         id="path402"
         style="fill:#342f6a;fill-opacity:1;fill-rule:nonzero;stroke:none"
         d="m 4582.23,1916.55 c -6,0 -10.85,4.86 -10.85,10.85 0,2.42 0.81,4.63 2.15,6.43 -2.54,0.88 -5.23,1.46 -8.07,1.46 -13.62,0 -24.66,-11.04 -24.66,-24.66 0,-13.61 11.04,-24.66 24.66,-24.66 13.62,0 24.66,11.05 24.66,24.66 0,2.84 -0.58,5.53 -1.46,8.08 -1.8,-1.34 -4.02,-2.16 -6.43,-2.16" /><path
         id="path404"
         style="fill:#342f6a;fill-opacity:1;fill-rule:nonzero;stroke:none"
         d="m 4430.31,1894.86 c 29.2,0 52.94,-23.76 52.94,-52.95 0,-4.9 -3.98,-8.88 -8.88,-8.88 -4.89,0 -8.88,3.98 -8.88,8.88 0,19.4 -15.78,35.18 -35.18,35.18 -19.4,0 -35.19,-15.78 -35.19,-35.18 0,-4.9 -3.98,-8.88 -8.88,-8.88 -4.9,0 -8.87,3.98 -8.87,8.88 0,29.19 23.75,52.95 52.94,52.95" /><path
         id="path406"
         style="fill:#ee1b88;fill-opacity:1;fill-rule:nonzero;stroke:none"
         d="m 2849.61,1745.78 h -171.9 l -17.86,292.83 h 207.62 l -17.86,-292.83" /><path
         id="path408"
         style="fill:#f46c25;fill-opacity:1;fill-rule:nonzero;stroke:none"
         d="m 2879.75,2018.76 h -232.18 v 19.85 h 232.18 v -19.85" /><path
         id="path410"
         style="fill:#ed117a;fill-opacity:1;fill-rule:nonzero;stroke:none"
         d="m 2856.03,1851.02 5.58,91.45 h -195.89 l 5.57,-91.45 h 184.74" /><path
         id="path412"
         style="fill:#ee1b88;fill-opacity:1;fill-rule:nonzero;stroke:none"
         d="m 4296.71,1842.39 c 0,-12.52 -23.09,-22.66 -51.57,-22.66 -28.49,0 -51.58,10.14 -51.58,22.66 0,12.51 23.09,22.64 51.58,22.64 28.48,0 51.57,-10.13 51.57,-22.64" /><path
         id="path414"
         style="fill:#ee1b88;fill-opacity:1;fill-rule:nonzero;stroke:none"
         d="m 4667.51,1842.39 c 0,-12.52 -23.08,-22.66 -51.57,-22.66 -28.49,0 -51.57,10.14 -51.57,22.66 0,12.51 23.08,22.64 51.57,22.64 28.49,0 51.57,-10.13 51.57,-22.64" /><path
         id="path416"
         style="fill:#f9a718;fill-opacity:1;fill-rule:nonzero;stroke:none"
         d="m 805.027,3364.85 -72.691,-80.58 163.102,-58.96 -45.313,-50.23 294.875,-75.48 -201.598,99.33 50.453,55.92 -188.828,110" /><path
         id="path418"
         style="fill:#f9a718;fill-opacity:1;fill-rule:nonzero;stroke:none"
         d="m 1073.47,3435.64 -80.454,-15.95 72.144,-109.45 -50.16,-9.94 144.51,-179.03 -77.22,151.31 55.84,11.07 -64.66,151.99" /><path
         id="path420"
         style="fill:#19b2af;fill-opacity:1;fill-rule:nonzero;stroke:none"
         d="m 1695.49,291.191 c 0,0 -79.47,187.188 -267.55,200.34 -188.07,13.149 -325.82,-139.98 -325.82,-313.742 h 929.19 c -7.13,17.723 -86.35,197.582 -335.82,113.402" /><g
         id="g422"><g
           clip-path="url(#clipPath428)"
           id="g424"><path
             id="path430"
             style="fill:#292852;fill-opacity:1;fill-rule:nonzero;stroke:none"
             d="m 1102.12,176.258 h 929.789 v 1.53125 H 1102.12 Z" /></g></g><path
         id="path432"
         style="fill:#d0cbdc;fill-opacity:1;fill-rule:nonzero;stroke:none"
         d="m 1347.93,486.898 v 0 c 18.49,3.563 37.71,5.43 57.56,5.43 7.41,0 14.88,-0.258 22.45,-0.789 2.29,-0.16 4.56,-0.348 6.81,-0.57 -2.25,0.211 -4.52,0.402 -6.81,0.562 -7.56,0.528 -15.07,0.789 -22.46,0.789 -19.85,0 -39.07,-1.871 -57.55,-5.422" /><path
         id="path434"
         style="fill:#413488;fill-opacity:1;fill-rule:nonzero;stroke:none"
         d="m 1309.68,476.828 c 12.35,4.172 25.11,7.543 38.25,10.07 v 0 c -13.14,-2.527 -25.9,-5.91 -38.25,-10.07" /><path
         id="path436"
         style="fill:#12b0b0;fill-opacity:1;fill-rule:nonzero;stroke:none"
         d="m 1226.47,177.789 h -124.35 c 0,134.672 82.78,256.961 207.56,299.039 12.35,4.16 25.11,7.543 38.25,10.07 18.48,3.551 37.7,5.422 57.55,5.422 7.39,0 14.9,-0.261 22.46,-0.789 2.29,-0.16 4.56,-0.351 6.81,-0.562 11.3,-1.078 22.15,-2.84 32.66,-5.071 C 1324.2,455.84 1226.47,324.148 1226.47,177.789" /><path
         id="path438"
         style="fill:#19b2af;fill-opacity:1;fill-rule:nonzero;stroke:none"
         d="m 3100.73,260.211 c 0,0 58.04,136.73 195.43,146.34 137.37,9.597 237.98,-102.262 237.98,-229.172 h -678.7 c 5.2,12.949 63.06,144.312 245.29,82.832" /><path
         id="path440"
         style="fill:#292852;fill-opacity:1;fill-rule:nonzero;stroke:none"
         d="m 2855,176.258 0.06,0.152 588.25,0.969 v 0 h 90.83 v 0 L 2855,176.258" /><path
         id="path442"
         style="fill:#342f6a;fill-opacity:1;fill-rule:nonzero;stroke:none"
         d="m 3295.67,406.508 c 0.01,0 0.01,0 0.02,0 h -0.02 m 0.49,0.043 c 5.53,0.379 10.98,0.57 16.39,0.57 -5.4,0 -10.87,-0.191 -16.39,-0.57 m 16.45,0.57 c -0.02,0 -0.04,0 -0.06,0 v 0 c 0.02,0 0.04,0 0.06,0" /><path
         id="path444"
         style="fill:#12b0b0;fill-opacity:1;fill-rule:nonzero;stroke:none"
         d="m 3534.14,177.379 h -90.83 c 0,106.902 -71.38,203.101 -175.99,225.051 9.06,1.929 18.48,3.371 28.35,4.078 h 0.02 c 0.15,0.012 0.31,0.031 0.47,0.043 v 0 c 5.52,0.379 10.99,0.57 16.39,0.57 v 0 c 0.02,0 0.04,0 0.06,0 128.87,-0.043 221.53,-107.961 221.53,-229.742" /><path
         id="path446"
         style="fill:#f9a718;fill-opacity:1;fill-rule:nonzero;stroke:none"
         d="m 4043.89,3447.45 12.16,-32.84 32.84,-12.16 -32.84,-12.15 -12.16,-32.84 -12.15,32.84 -32.84,12.15 32.84,12.16 12.15,32.84" /><path
         id="path448"
         style="fill:#f9a718;fill-opacity:1;fill-rule:nonzero;stroke:none"
         d="m 4139.23,3575.47 7.19,-19.43 19.44,-7.2 -19.44,-7.19 -7.19,-19.44 -7.2,19.44 -19.43,7.19 19.43,7.2 7.2,19.43" /><path
         id="path450"
         style="fill:#f9a718;fill-opacity:1;fill-rule:nonzero;stroke:none"
         d="m 3998.9,3588.62 15.69,-42.42 42.43,-15.7 -42.43,-15.7 -15.69,-42.43 -15.7,42.43 -42.43,15.7 42.43,15.7 15.7,42.42" /><path
         id="path452"
         style="fill:#f9a718;fill-opacity:1;fill-rule:nonzero;stroke:none"
         d="m 5031.26,1920.57 -18.56,-50.19 -50.2,-18.57 50.2,-18.57 18.56,-50.19 18.58,50.19 50.18,18.57 -50.18,18.57 -18.58,50.19" /><path
         id="path454"
         style="fill:#f9a718;fill-opacity:1;fill-rule:nonzero;stroke:none"
         d="m 4875.37,2083.32 -10.98,-29.7 -29.71,-11 29.71,-10.98 10.98,-29.71 11,29.71 29.71,10.98 -29.71,11 -11,29.7" /><path
         id="path456"
         style="fill:#f9a718;fill-opacity:1;fill-rule:nonzero;stroke:none"
         d="m 5120.09,2176.43 -23.99,-64.84 -64.84,-23.99 64.84,-23.99 23.99,-64.84 24,64.84 64.83,23.99 -64.83,23.99 -24,64.84" /><path
         id="path458"
         style="fill:#f9a718;fill-opacity:1;fill-rule:nonzero;stroke:none"
         d="m 2784.13,3035.96 -18.57,-50.18 -50.19,-18.58 50.19,-18.57 18.57,-50.19 18.58,50.19 50.18,18.57 -50.18,18.58 -18.58,50.18" /><path
         id="path460"
         style="fill:#f9a718;fill-opacity:1;fill-rule:nonzero;stroke:none"
         d="m 2863.33,3188.55 -10.99,-29.7 -29.7,-11 29.7,-10.99 10.99,-29.71 11,29.71 29.71,10.99 -29.71,11 -11,29.7" /><path
         id="path462"
         style="fill:#f9a718;fill-opacity:1;fill-rule:nonzero;stroke:none"
         d="m 2656.26,3254.75 -23.99,-64.83 -64.84,-24 64.84,-23.99 23.99,-64.83 23.99,64.83 64.84,23.99 -64.84,24 -23.99,64.83" /><path
         id="path464"
         style="fill:#f9a718;fill-opacity:1;fill-rule:nonzero;stroke:none"
         d="m 516.156,1516.69 -18.574,-50.18 -50.191,-18.58 50.191,-18.57 18.574,-50.19 18.571,50.19 50.187,18.57 -50.187,18.58 -18.571,50.18" /><path
         id="path466"
         style="fill:#f9a718;fill-opacity:1;fill-rule:nonzero;stroke:none"
         d="m 360.266,1679.45 -10.996,-29.71 -29.707,-11 29.707,-10.98 10.996,-29.71 10.992,29.71 29.707,10.98 -29.707,11 -10.992,29.71" /><path
         id="path468"
         style="fill:#f9a718;fill-opacity:1;fill-rule:nonzero;stroke:none"
         d="m 604.98,1772.55 -23.992,-64.83 -64.832,-23.99 64.832,-23.99 23.992,-64.84 23.989,64.84 64.84,23.99 -64.84,23.99 -23.989,64.83" /></g></g></svg>