<?xml version="1.0" encoding="UTF-8" standalone="no"?>
<svg
   xmlns:dc="http://purl.org/dc/elements/1.1/"
   xmlns:cc="http://creativecommons.org/ns#"
   xmlns:rdf="http://www.w3.org/1999/02/22-rdf-syntax-ns#"
   xmlns:svg="http://www.w3.org/2000/svg"
   xmlns="http://www.w3.org/2000/svg"
   viewBox="0 0 319.17334 88.90667"
   height="88.90667"
   width="319.17334"
   xml:space="preserve"
   id="svg2"
   version="1.1"><metadata
     id="metadata8"><rdf:RDF><cc:Work
         rdf:about=""><dc:format>image/svg+xml</dc:format><dc:type
           rdf:resource="http://purl.org/dc/dcmitype/StillImage" /></cc:Work></rdf:RDF></metadata><defs
     id="defs6" /><g
     transform="matrix(1.3333333,0,0,-1.3333333,0,88.906667)"
     id="g10"><g
       transform="scale(0.1)"
       id="g12"><path
         id="path14"
         style="fill:#e31a3e;fill-opacity:1;fill-rule:nonzero;stroke:none"
         d="m 655.773,594.805 -1.968,0.113 c -3.75,-0.34 -6.489,-3.672 -6.172,-7.402 l 2.265,-24.817 c 0.27,-2.758 2.262,-5.105 4.977,-5.824 40.613,-10.496 75,-37.941 94.344,-75.27 1.265,-2.402 3.824,-3.789 6.496,-3.542 l 25.254,2.304 c 2.183,0.196 4.16,1.449 5.261,3.348 1.122,1.894 1.247,4.199 0.348,6.191 -24.254,53.629 -73.133,92.832 -130.805,104.899" /><path
         id="path16"
         style="fill:#51697e;fill-opacity:1;fill-rule:nonzero;stroke:none"
         d="m 657.203,666.813 -1.48,0.019 c -3.754,-0.344 -6.489,-3.648 -6.16,-7.379 l 2.222,-24.426 c 0.278,-3.019 2.582,-5.476 5.653,-5.98 73.792,-11.363 136.203,-61.84 162.863,-131.707 1.054,-2.789 3.89,-4.543 6.84,-4.274 l 24.476,2.231 c 2.094,0.191 3.946,1.328 5.102,3.105 1.117,1.782 1.379,3.934 0.699,5.899 -30.438,86.976 -109.023,150.754 -200.215,162.512" /><path
         id="path18"
         style="fill:#51697e;fill-opacity:1;fill-rule:nonzero;stroke:none"
         d="m 82.2813,0 h 27.7697 c 25.394,0 47.195,18.0547 51.941,43.0156 l 11.301,33.375 H 29.4219 V 52.8398 C 29.4219,23.6602 53.0859,0 82.2813,0" /><path
         id="path20"
         style="fill:#51697e;fill-opacity:1;fill-rule:nonzero;stroke:none"
         d="m 638.168,0 h 27.766 c 29.183,0 52.836,23.6602 52.836,52.8398 V 76.3906 H 574.91 l 11.297,-33.375 C 590.965,18.0547 612.773,0 638.168,0" /><path
         id="path22"
         style="fill:#e31a3e;fill-opacity:1;fill-rule:nonzero;stroke:none"
         d="m 173.293,76.3906 3.867,11.4219 H 29.4219 V 76.3906 H 173.293" /><path
         id="path24"
         style="fill:#ef3053;fill-opacity:1;fill-rule:nonzero;stroke:none"
         d="m 177.16,87.8125 9.492,28.0235 H 29.4219 V 87.8125 H 177.16" /><path
         id="path26"
         style="fill:#51697e;fill-opacity:1;fill-rule:nonzero;stroke:none"
         d="M 158.727,474.988 C 230.133,474.988 288,417.113 288,345.707 288,274.301 230.133,216.426 158.727,216.426 c -71.4262,0 -129.3051,57.875 -129.3051,129.281 0,71.406 57.8789,129.281 129.3051,129.281 z m 372.769,-77.39 c 20.32,0 36.832,-16.496 36.832,-36.844 0,-20.34 -16.512,-36.832 -36.832,-36.832 -20.363,0 -36.867,16.492 -36.867,36.832 0,20.348 16.504,36.844 36.867,36.844 z m 68.492,68.511 c 20.356,0 36.828,-16.476 36.828,-36.832 0,-20.347 -16.472,-36.839 -36.828,-36.839 -20.343,0 -36.847,16.492 -36.847,36.839 0,20.356 16.504,36.832 36.847,36.832 z m 68.508,-68.511 c 20.367,0 36.84,-16.496 36.84,-36.844 0,-20.34 -16.473,-36.832 -36.84,-36.832 -20.32,0 -36.836,16.492 -36.836,36.832 0,20.348 16.516,36.844 36.836,36.844 z m -68.508,-142.2 c -20.343,0 -36.847,16.497 -36.847,36.836 0,20.356 16.504,36.848 36.847,36.848 20.356,0 36.828,-16.492 36.828,-36.848 0,-20.339 -16.472,-36.836 -36.828,-36.836 z m -413.336,-139.562 26.571,78.363 c 15.761,5.563 30.351,13.496 43.355,23.395 7.863,5.965 17.36,9.308 27.231,9.308 h 180.617 c 9.832,0 19.336,-3.343 27.203,-9.308 13.031,-9.899 27.617,-17.832 43.375,-23.395 l 26.547,-78.363 H 718.77 v 136.855 c 22.5,31.766 33.875,71.961 27.839,115.067 -10.117,72.844 -70.675,130.137 -143.914,136.605 -47.484,4.2 -90.98,-12.441 -122.726,-41.687 -5.301,-4.875 -12.391,-7.403 -19.602,-7.403 H 287.844 c -7.227,0 -14.274,2.528 -19.61,7.403 -31.718,29.246 -75.246,45.887 -122.707,41.687 C 72.2617,497.895 11.7266,440.602 1.59766,367.77 -4.41797,324.664 6.94141,284.457 29.4219,252.691 V 115.836 H 186.652" /><path
         id="path28"
         style="fill:#ef3053;fill-opacity:1;fill-rule:nonzero;stroke:none"
         d="M 718.77,87.8125 V 115.836 H 561.551 l 9.484,-28.0235 H 718.77" /><path
         id="path30"
         style="fill:#e31a3e;fill-opacity:1;fill-rule:nonzero;stroke:none"
         d="M 718.77,76.3906 V 87.8125 H 571.035 l 3.875,-11.4219 h 143.86" /><path
         id="path32"
         style="fill:#ef3053;fill-opacity:1;fill-rule:nonzero;stroke:none"
         d="m 249.035,375.293 v -59.18 h -60.703 v -60.715 h -59.199 v 60.715 H 68.4258 v 59.18 h 60.7072 v 60.719 h 59.199 V 375.293 Z M 29.4219,345.707 c 0,-71.406 57.8789,-129.281 129.3051,-129.281 71.406,0 129.273,57.875 129.273,129.281 0,71.406 -57.867,129.281 -129.273,129.281 -71.4262,0 -129.3051,-57.875 -129.3051,-129.281" /><path
         id="path34"
         style="fill:#e31a3e;fill-opacity:1;fill-rule:nonzero;stroke:none"
         d="m 188.332,255.398 v 60.715 h 60.703 v 59.18 h -60.703 v 60.719 H 129.133 V 375.293 H 68.4258 v -59.18 h 60.7072 v -60.715 h 59.199" /><path
         id="path36"
         style="fill:#e31a3e;fill-opacity:1;fill-rule:nonzero;stroke:none"
         d="m 563.141,429.277 c 0,-20.347 16.504,-36.839 36.847,-36.839 20.356,0 36.828,16.492 36.828,36.839 0,20.356 -16.472,36.832 -36.828,36.832 -20.343,0 -36.847,-16.476 -36.847,-36.832" /><path
         id="path38"
         style="fill:#e31a3e;fill-opacity:1;fill-rule:nonzero;stroke:none"
         d="m 563.141,292.234 c 0,-20.339 16.504,-36.836 36.847,-36.836 20.356,0 36.828,16.497 36.828,36.836 0,20.356 -16.472,36.848 -36.828,36.848 -20.343,0 -36.847,-16.492 -36.847,-36.848" /><path
         id="path40"
         style="fill:#e31a3e;fill-opacity:1;fill-rule:nonzero;stroke:none"
         d="m 494.629,360.754 c 0,-20.34 16.504,-36.832 36.867,-36.832 20.32,0 36.832,16.492 36.832,36.832 0,20.348 -16.512,36.844 -36.832,36.844 -20.363,0 -36.867,-16.496 -36.867,-36.844" /><path
         id="path42"
         style="fill:#e31a3e;fill-opacity:1;fill-rule:nonzero;stroke:none"
         d="m 631.66,360.754 c 0,-20.34 16.516,-36.832 36.836,-36.832 20.367,0 36.84,16.492 36.84,36.832 0,20.348 -16.473,36.844 -36.84,36.844 -20.32,0 -36.836,-16.496 -36.836,-36.844" /><path
         id="path44"
         style="fill:#51697e;fill-opacity:1;fill-rule:nonzero;stroke:none"
         d="m 982.59,348.184 c -4.766,0 -9.024,-0.141 -12.805,-0.422 -3.777,-0.282 -7.351,-0.567 -10.711,-0.84 v -78.957 h 18.477 c 24.639,0 42.279,3.074 52.919,9.238 10.64,6.156 15.97,16.652 15.97,31.504 0,14.277 -5.4,24.422 -16.17,30.449 -10.79,6.016 -26.67,9.028 -47.68,9.028 z m -3.781,55.859 c 43.681,0 77.141,-7.77 100.381,-23.313 23.24,-15.535 34.86,-39.683 34.86,-72.445 0,-20.445 -4.69,-37.035 -14.07,-49.769 -9.38,-12.746 -22.89,-22.754 -40.53,-30.032 5.88,-7.285 12.04,-15.613 18.48,-24.988 6.44,-9.387 12.81,-19.183 19.11,-29.406 6.3,-10.219 12.4,-20.86 18.27,-31.918 5.88,-11.063 11.34,-21.91 16.38,-32.547 h -73.24 c -5.34,9.516 -10.75,19.172 -16.24,28.977 -5.48,9.8 -11.1,19.324 -16.86,28.562 -5.76,9.242 -11.45,17.988 -17.07,26.25 -5.62,8.258 -11.249,15.75 -16.862,22.469 H 959.074 V 109.625 h -65.523 v 286.859 c 14.285,2.793 29.047,4.754 44.312,5.879 15.258,1.117 28.907,1.68 40.946,1.68" /><path
         id="path46"
         style="fill:#51697e;fill-opacity:1;fill-rule:nonzero;stroke:none"
         d="m 1295.49,242.344 c -0.28,5.316 -1.19,10.496 -2.72,15.543 -1.55,5.039 -3.93,9.511 -7.15,13.437 -3.22,3.918 -7.28,7.137 -12.18,9.66 -4.9,2.52 -10.99,3.782 -18.27,3.782 -7,0 -13.02,-1.196 -18.06,-3.571 -5.04,-2.382 -9.24,-5.531 -12.6,-9.453 -3.36,-3.926 -5.95,-8.472 -7.77,-13.648 -1.83,-5.184 -3.14,-10.434 -3.98,-15.75 z m -147,-23.942 c 0,19.594 3.01,36.754 9.03,51.45 6.02,14.703 13.93,26.949 23.73,36.753 9.8,9.797 21.07,17.219 33.81,22.258 12.73,5.043 25.83,7.563 39.27,7.563 31.36,0 56.14,-9.594 74.34,-28.77 18.2,-19.183 27.3,-47.398 27.3,-84.633 0,-3.644 -0.14,-7.632 -0.42,-11.968 -0.28,-4.344 -0.56,-8.188 -0.84,-11.551 h -141.95 c 1.39,-12.883 7.41,-23.098 18.05,-30.66 10.64,-7.559 24.92,-11.34 42.84,-11.34 11.48,0 22.75,1.051 33.81,3.148 11.06,2.102 20.09,4.688 27.09,7.77 l 8.4,-50.82 c -3.36,-1.68 -7.84,-3.36 -13.44,-5.039 -5.6,-1.68 -11.83,-3.149 -18.69,-4.411 -6.86,-1.257 -14.22,-2.308 -22.05,-3.148 -7.84,-0.84 -15.68,-1.258 -23.51,-1.258 -19.9,0 -37.18,2.938 -51.88,8.817 -14.7,5.878 -26.87,13.925 -36.54,24.152 -9.66,10.219 -16.8,22.324 -21.42,36.328 -4.62,13.996 -6.93,29.121 -6.93,45.359" /><path
         id="path48"
         style="fill:#51697e;fill-opacity:1;fill-rule:nonzero;stroke:none"
         d="m 1402.18,385.566 62.58,10.079 v -65.102 h 75.17 v -52.082 h -75.17 v -77.699 c 0,-13.164 2.3,-23.664 6.92,-31.5 4.62,-7.84 13.93,-11.758 27.93,-11.758 6.73,0 13.65,0.629 20.79,1.891 7.14,1.257 13.65,3.003 19.53,5.25 l 8.82,-48.723 c -7.56,-3.082 -15.96,-5.742 -25.19,-7.977 -9.24,-2.238 -20.59,-3.359 -34.03,-3.359 -17.08,0 -31.22,2.309 -42.42,6.926 -11.2,4.621 -20.16,11.062 -26.87,19.324 -6.72,8.254 -11.42,18.269 -14.08,30.027 -2.66,11.758 -3.98,24.782 -3.98,39.059 v 185.644" /><path
         id="path50"
         style="fill:#51697e;fill-opacity:1;fill-rule:nonzero;stroke:none"
         d="m 1723.89,275.102 c -5.61,1.402 -12.18,2.871 -19.74,4.41 -7.56,1.539 -15.68,2.312 -24.36,2.312 -3.93,0 -8.61,-0.355 -14.08,-1.047 -5.45,-0.703 -9.59,-1.476 -12.38,-2.316 V 109.625 h -62.58 v 209.16 c 11.19,3.914 24.43,7.625 39.69,11.125 15.25,3.504 32.27,5.254 51.03,5.254 3.36,0 7.42,-0.207 12.18,-0.629 4.76,-0.418 9.52,-0.984 14.28,-1.68 4.76,-0.703 9.51,-1.542 14.28,-2.523 4.75,-0.98 8.82,-2.168 12.18,-3.57 l -10.5,-51.66" /><path
         id="path52"
         style="fill:#51697e;fill-opacity:1;fill-rule:nonzero;stroke:none"
         d="m 1906.58,220.504 c 0,19.32 -3.84,34.504 -11.54,45.57 -7.7,11.059 -18.69,16.59 -32.98,16.59 -14.28,0 -25.34,-5.531 -33.17,-16.59 -7.84,-11.066 -11.76,-26.25 -11.76,-45.57 0,-19.324 3.92,-34.649 11.76,-45.992 7.83,-11.34 18.89,-17.008 33.17,-17.008 14.29,0 25.28,5.668 32.98,17.008 7.7,11.343 11.54,26.668 11.54,45.992 z m 63.84,0 c 0,-17.363 -2.52,-33.254 -7.56,-47.672 -5.04,-14.426 -12.32,-26.738 -21.83,-36.957 -9.52,-10.227 -20.94,-18.133 -34.23,-23.73 -13.3,-5.598 -28.21,-8.399 -44.74,-8.399 -16.24,0 -31,2.801 -44.3,8.399 -13.31,5.597 -24.72,13.503 -34.23,23.73 -9.52,10.219 -16.95,22.531 -22.26,36.957 -5.32,14.418 -7.99,30.309 -7.99,47.672 0,17.355 2.74,33.176 8.2,47.461 5.46,14.281 13.01,26.457 22.67,36.539 9.67,10.082 21.14,17.918 34.45,23.519 13.3,5.598 27.78,8.403 43.46,8.403 15.97,0 30.6,-2.805 43.9,-8.403 13.29,-5.601 24.71,-13.437 34.23,-23.519 9.51,-10.082 16.93,-22.258 22.25,-36.539 5.33,-14.285 7.98,-30.106 7.98,-47.461" /><path
         id="path54"
         style="fill:#51697e;fill-opacity:1;fill-rule:nonzero;stroke:none"
         d="m 2008.22,220.082 c 0,15.965 2.59,31.012 7.78,45.152 5.17,14.137 12.66,26.461 22.47,36.957 9.79,10.504 21.7,18.829 35.7,24.993 14,6.156 29.95,9.242 47.88,9.242 11.76,0 22.53,-1.051 32.34,-3.149 9.79,-2.105 19.32,-5.113 28.56,-9.035 l -13.03,-49.98 c -5.88,2.242 -12.32,4.199 -19.31,5.879 -7,1.683 -14.85,2.523 -23.52,2.523 -18.48,0 -32.27,-5.742 -41.38,-17.219 -9.1,-11.484 -13.64,-26.605 -13.64,-45.363 0,-19.883 4.26,-35.277 12.8,-46.199 8.55,-10.918 23.45,-16.379 44.74,-16.379 7.56,0 15.67,0.695 24.36,2.101 8.68,1.395 16.66,3.633 23.94,6.719 l 8.82,-51.242 c -7.29,-3.078 -16.39,-5.73 -27.3,-7.977 -10.92,-2.238 -22.96,-3.359 -36.12,-3.359 -20.16,0 -37.53,3.012 -52.08,9.027 -14.57,6.02 -26.53,14.207 -35.92,24.571 -9.38,10.355 -16.24,22.605 -20.57,36.746 -4.35,14.137 -6.52,29.469 -6.52,45.992" /><path
         id="path56"
         style="fill:#51697e;fill-opacity:1;fill-rule:nonzero;stroke:none"
         d="m 2302.65,153.305 c 6.16,0 12.04,0.136 17.64,0.422 5.6,0.273 10.08,0.691 13.44,1.257 v 47.461 c -2.52,0.559 -6.3,1.114 -11.34,1.68 -5.04,0.559 -9.66,0.84 -13.86,0.84 -5.88,0 -11.41,-0.356 -16.59,-1.051 -5.18,-0.699 -9.73,-2.035 -13.65,-3.992 -3.92,-1.957 -7,-4.621 -9.24,-7.981 -2.24,-3.355 -3.36,-7.558 -3.36,-12.597 0,-9.805 3.29,-16.59 9.87,-20.371 6.57,-3.778 15.6,-5.668 27.09,-5.668 z m -5.04,183.121 c 18.48,0 33.88,-2.102 46.2,-6.305 12.31,-4.199 22.19,-10.223 29.61,-18.055 7.41,-7.843 12.67,-17.371 15.75,-28.562 3.08,-11.203 4.62,-23.664 4.62,-37.383 V 115.922 c -8.96,-1.961 -21.43,-4.274 -37.38,-6.93 -15.96,-2.652 -35.28,-3.988 -57.96,-3.988 -14.28,0 -27.24,1.262 -38.85,3.781 -11.62,2.52 -21.63,6.645 -30.03,12.387 -8.4,5.738 -14.84,13.23 -19.32,22.469 -4.49,9.246 -6.72,20.582 -6.72,34.023 0,12.879 2.58,23.797 7.77,32.762 5.18,8.953 12.11,16.097 20.79,21.418 8.67,5.312 18.61,9.168 29.82,11.551 11.2,2.375 22.82,3.57 34.86,3.57 8.11,0 15.33,-0.356 21.63,-1.051 6.3,-0.703 11.41,-1.613 15.33,-2.73 v 5.879 c 0,10.64 -3.22,19.175 -9.66,25.621 -6.44,6.437 -17.64,9.66 -33.6,9.66 -10.64,0 -21.14,-0.774 -31.5,-2.309 -10.36,-1.543 -19.32,-3.715 -26.88,-6.512 l -7.98,50.399 c 3.64,1.117 8.19,2.308 13.65,3.57 5.46,1.262 11.4,2.379 17.85,3.363 6.44,0.977 13.23,1.817 20.37,2.52 7.14,0.695 14.34,1.051 21.63,1.051" /></g></g></svg>